# MagicaVoxel @ Ephtracy

# group
g MC_Ground-4

# material
mtllib MC_Ground-4.mtl
usemtl palette

# normals
vn -1 0 0
vn 1 0 0
vn 0 0 1
vn 0 0 -1
vn 0 -1 0
vn 0 1 0

# texcoords
vt 0.00195313 0.5
vt 0.958984 0.5

# verts
v -63 0 0.5
v -63 0 -0.5
v -63 2 0.5
v -63 2 -0.5
v -63 19 0.5
v -63 19 -0.5
v -58 19 0.5
v -58 19 -0.5
v -58 20 0.5
v -58 20 -0.5
v -56 20 0.5
v -56 20 -0.5
v -56 21 0.5
v -56 21 -0.5
v -54 21 0.5
v -54 21 -0.5
v -54 23 0.5
v -54 23 -0.5
v -51 23 0.5
v -51 23 -0.5
v -51 24 0.5
v -51 24 -0.5
v -48 24 0.5
v -48 24 -0.5
v -48 25 0.5
v -48 25 -0.5
v -46 25 0.5
v -46 25 -0.5
v -46 27 0.5
v -46 27 -0.5
v -45 27 0.5
v -45 27 -0.5
v -45 28 0.5
v -45 28 -0.5
v 15 16 0.5
v 15 16 -0.5
v 15 17 0.5
v 15 17 -0.5
v 16 17 0.5
v 16 17 -0.5
v 16 18 0.5
v 16 18 -0.5
v 17 18 0.5
v 17 18 -0.5
v 17 19 0.5
v 17 19 -0.5
v 28 19 0.5
v 28 19 -0.5
v 28 20 0.5
v 28 20 -0.5
v 32 20 0.5
v 32 20 -0.5
v 32 21 0.5
v 32 21 -0.5
v 35 21 0.5
v 35 21 -0.5
v 35 22 0.5
v 35 22 -0.5
v -43 27 0.5
v -43 27 -0.5
v -43 28 0.5
v -43 28 -0.5
v -42 25 0.5
v -42 25 -0.5
v -42 27 0.5
v -42 27 -0.5
v -40 24 0.5
v -40 24 -0.5
v -40 25 0.5
v -40 25 -0.5
v -37 23 0.5
v -37 23 -0.5
v -37 24 0.5
v -37 24 -0.5
v -34 21 0.5
v -34 21 -0.5
v -34 23 0.5
v -34 23 -0.5
v -31 20 0.5
v -31 20 -0.5
v -31 21 0.5
v -31 21 -0.5
v -29 19 0.5
v -29 19 -0.5
v -29 20 0.5
v -29 20 -0.5
v -23 18 0.5
v -23 18 -0.5
v -23 19 0.5
v -23 19 -0.5
v -22 17 0.5
v -22 17 -0.5
v -22 18 0.5
v -22 18 -0.5
v -21 16 0.5
v -21 16 -0.5
v -21 17 0.5
v -21 17 -0.5
v 39 21 0.5
v 39 21 -0.5
v 39 22 0.5
v 39 22 -0.5
v 41 20 0.5
v 41 20 -0.5
v 41 21 0.5
v 41 21 -0.5
v 45 19 0.5
v 45 19 -0.5
v 45 20 0.5
v 45 20 -0.5
v 53 18 0.5
v 53 18 -0.5
v 53 19 0.5
v 53 19 -0.5
v 54 17 0.5
v 54 17 -0.5
v 54 18 0.5
v 54 18 -0.5
v 55 16 0.5
v 55 16 -0.5
v 55 17 0.5
v 55 17 -0.5
v 63 0 0.5
v 63 0 -0.5
v 63 2 0.5
v 63 2 -0.5
v 63 16 0.5
v 63 16 -0.5
v -63 0 0.5
v -63 2 0.5
v -63 19 0.5
v -58 19 0.5
v -58 20 0.5
v -56 20 0.5
v -56 21 0.5
v -54 21 0.5
v -54 23 0.5
v -51 23 0.5
v -51 24 0.5
v -48 24 0.5
v -48 25 0.5
v -46 25 0.5
v -46 27 0.5
v -45 27 0.5
v -45 28 0.5
v -43 27 0.5
v -43 28 0.5
v -42 25 0.5
v -42 27 0.5
v -40 24 0.5
v -40 25 0.5
v -37 23 0.5
v -37 24 0.5
v -34 21 0.5
v -34 23 0.5
v -31 20 0.5
v -31 21 0.5
v -29 19 0.5
v -29 20 0.5
v -23 18 0.5
v -23 19 0.5
v -22 17 0.5
v -22 18 0.5
v -21 16 0.5
v -21 17 0.5
v 15 16 0.5
v 15 17 0.5
v 16 17 0.5
v 16 18 0.5
v 17 18 0.5
v 17 19 0.5
v 28 19 0.5
v 28 20 0.5
v 32 20 0.5
v 32 21 0.5
v 35 21 0.5
v 35 22 0.5
v 39 21 0.5
v 39 22 0.5
v 41 20 0.5
v 41 21 0.5
v 45 19 0.5
v 45 20 0.5
v 53 18 0.5
v 53 19 0.5
v 54 17 0.5
v 54 18 0.5
v 55 16 0.5
v 55 17 0.5
v 63 0 0.5
v 63 2 0.5
v 63 16 0.5
v -63 0 -0.5
v -63 2 -0.5
v -63 19 -0.5
v -58 19 -0.5
v -58 20 -0.5
v -56 20 -0.5
v -56 21 -0.5
v -54 21 -0.5
v -54 23 -0.5
v -51 23 -0.5
v -51 24 -0.5
v -48 24 -0.5
v -48 25 -0.5
v -46 25 -0.5
v -46 27 -0.5
v -45 27 -0.5
v -45 28 -0.5
v -43 27 -0.5
v -43 28 -0.5
v -42 25 -0.5
v -42 27 -0.5
v -40 24 -0.5
v -40 25 -0.5
v -37 23 -0.5
v -37 24 -0.5
v -34 21 -0.5
v -34 23 -0.5
v -31 20 -0.5
v -31 21 -0.5
v -29 19 -0.5
v -29 20 -0.5
v -23 18 -0.5
v -23 19 -0.5
v -22 17 -0.5
v -22 18 -0.5
v -21 16 -0.5
v -21 17 -0.5
v 15 16 -0.5
v 15 17 -0.5
v 16 17 -0.5
v 16 18 -0.5
v 17 18 -0.5
v 17 19 -0.5
v 28 19 -0.5
v 28 20 -0.5
v 32 20 -0.5
v 32 21 -0.5
v 35 21 -0.5
v 35 22 -0.5
v 39 21 -0.5
v 39 22 -0.5
v 41 20 -0.5
v 41 21 -0.5
v 45 19 -0.5
v 45 20 -0.5
v 53 18 -0.5
v 53 19 -0.5
v 54 17 -0.5
v 54 18 -0.5
v 55 16 -0.5
v 55 17 -0.5
v 63 0 -0.5
v 63 2 -0.5
v 63 16 -0.5
v -63 0 0.5
v 63 0 0.5
v -63 0 -0.5
v 63 0 -0.5
v -21 16 0.5
v 15 16 0.5
v 55 16 0.5
v 63 16 0.5
v -21 16 -0.5
v 15 16 -0.5
v 55 16 -0.5
v 63 16 -0.5
v -22 17 0.5
v -21 17 0.5
v 15 17 0.5
v 16 17 0.5
v 54 17 0.5
v 55 17 0.5
v -22 17 -0.5
v -21 17 -0.5
v 15 17 -0.5
v 16 17 -0.5
v 54 17 -0.5
v 55 17 -0.5
v -23 18 0.5
v -22 18 0.5
v 16 18 0.5
v 17 18 0.5
v 53 18 0.5
v 54 18 0.5
v -23 18 -0.5
v -22 18 -0.5
v 16 18 -0.5
v 17 18 -0.5
v 53 18 -0.5
v 54 18 -0.5
v -63 19 0.5
v -58 19 0.5
v -29 19 0.5
v -23 19 0.5
v 17 19 0.5
v 28 19 0.5
v 45 19 0.5
v 53 19 0.5
v -63 19 -0.5
v -58 19 -0.5
v -29 19 -0.5
v -23 19 -0.5
v 17 19 -0.5
v 28 19 -0.5
v 45 19 -0.5
v 53 19 -0.5
v -58 20 0.5
v -56 20 0.5
v -31 20 0.5
v -29 20 0.5
v 28 20 0.5
v 32 20 0.5
v 41 20 0.5
v 45 20 0.5
v -58 20 -0.5
v -56 20 -0.5
v -31 20 -0.5
v -29 20 -0.5
v 28 20 -0.5
v 32 20 -0.5
v 41 20 -0.5
v 45 20 -0.5
v -56 21 0.5
v -54 21 0.5
v -34 21 0.5
v -31 21 0.5
v 32 21 0.5
v 35 21 0.5
v 39 21 0.5
v 41 21 0.5
v -56 21 -0.5
v -54 21 -0.5
v -34 21 -0.5
v -31 21 -0.5
v 32 21 -0.5
v 35 21 -0.5
v 39 21 -0.5
v 41 21 -0.5
v 35 22 0.5
v 39 22 0.5
v 35 22 -0.5
v 39 22 -0.5
v -54 23 0.5
v -51 23 0.5
v -37 23 0.5
v -34 23 0.5
v -54 23 -0.5
v -51 23 -0.5
v -37 23 -0.5
v -34 23 -0.5
v -51 24 0.5
v -48 24 0.5
v -40 24 0.5
v -37 24 0.5
v -51 24 -0.5
v -48 24 -0.5
v -40 24 -0.5
v -37 24 -0.5
v -48 25 0.5
v -46 25 0.5
v -42 25 0.5
v -40 25 0.5
v -48 25 -0.5
v -46 25 -0.5
v -42 25 -0.5
v -40 25 -0.5
v -46 27 0.5
v -45 27 0.5
v -43 27 0.5
v -42 27 0.5
v -46 27 -0.5
v -45 27 -0.5
v -43 27 -0.5
v -42 27 -0.5
v -45 28 0.5
v -43 28 0.5
v -45 28 -0.5
v -43 28 -0.5

# faces
f 3/2/1 2/2/1 1/2/1
f 4/2/1 2/2/1 3/2/1
f 5/1/1 4/1/1 3/1/1
f 6/1/1 4/1/1 5/1/1
f 9/1/1 8/1/1 7/1/1
f 10/1/1 8/1/1 9/1/1
f 13/1/1 12/1/1 11/1/1
f 14/1/1 12/1/1 13/1/1
f 17/1/1 16/1/1 15/1/1
f 18/1/1 16/1/1 17/1/1
f 21/1/1 20/1/1 19/1/1
f 22/1/1 20/1/1 21/1/1
f 25/1/1 24/1/1 23/1/1
f 26/1/1 24/1/1 25/1/1
f 29/1/1 28/1/1 27/1/1
f 30/1/1 28/1/1 29/1/1
f 33/1/1 32/1/1 31/1/1
f 34/1/1 32/1/1 33/1/1
f 37/1/1 36/1/1 35/1/1
f 38/1/1 36/1/1 37/1/1
f 41/1/1 40/1/1 39/1/1
f 42/1/1 40/1/1 41/1/1
f 45/1/1 44/1/1 43/1/1
f 46/1/1 44/1/1 45/1/1
f 49/1/1 48/1/1 47/1/1
f 50/1/1 48/1/1 49/1/1
f 53/1/1 52/1/1 51/1/1
f 54/1/1 52/1/1 53/1/1
f 57/1/1 56/1/1 55/1/1
f 58/1/1 56/1/1 57/1/1
f 59/1/2 60/1/2 61/1/2
f 61/1/2 60/1/2 62/1/2
f 63/1/2 64/1/2 65/1/2
f 65/1/2 64/1/2 66/1/2
f 67/1/2 68/1/2 69/1/2
f 69/1/2 68/1/2 70/1/2
f 71/1/2 72/1/2 73/1/2
f 73/1/2 72/1/2 74/1/2
f 75/1/2 76/1/2 77/1/2
f 77/1/2 76/1/2 78/1/2
f 79/1/2 80/1/2 81/1/2
f 81/1/2 80/1/2 82/1/2
f 83/1/2 84/1/2 85/1/2
f 85/1/2 84/1/2 86/1/2
f 87/1/2 88/1/2 89/1/2
f 89/1/2 88/1/2 90/1/2
f 91/1/2 92/1/2 93/1/2
f 93/1/2 92/1/2 94/1/2
f 95/1/2 96/1/2 97/1/2
f 97/1/2 96/1/2 98/1/2
f 99/1/2 100/1/2 101/1/2
f 101/1/2 100/1/2 102/1/2
f 103/1/2 104/1/2 105/1/2
f 105/1/2 104/1/2 106/1/2
f 107/1/2 108/1/2 109/1/2
f 109/1/2 108/1/2 110/1/2
f 111/1/2 112/1/2 113/1/2
f 113/1/2 112/1/2 114/1/2
f 115/1/2 116/1/2 117/1/2
f 117/1/2 116/1/2 118/1/2
f 119/1/2 120/1/2 121/1/2
f 121/1/2 120/1/2 122/1/2
f 123/2/2 124/2/2 125/2/2
f 125/2/2 124/2/2 126/2/2
f 125/1/2 126/1/2 127/1/2
f 127/1/2 126/1/2 128/1/2
f 132/1/3 131/1/3 130/1/3
f 134/1/3 133/1/3 132/1/3
f 136/1/3 135/1/3 134/1/3
f 138/1/3 137/1/3 136/1/3
f 140/1/3 139/1/3 138/1/3
f 142/1/3 141/1/3 140/1/3
f 144/1/3 143/1/3 142/1/3
f 146/1/3 144/1/3 142/1/3
f 146/1/3 145/1/3 144/1/3
f 147/1/3 145/1/3 146/1/3
f 148/1/3 142/1/3 140/1/3
f 148/1/3 146/1/3 142/1/3
f 149/1/3 146/1/3 148/1/3
f 150/1/3 140/1/3 138/1/3
f 150/1/3 148/1/3 140/1/3
f 151/1/3 148/1/3 150/1/3
f 152/1/3 138/1/3 136/1/3
f 152/1/3 150/1/3 138/1/3
f 153/1/3 150/1/3 152/1/3
f 154/1/3 136/1/3 134/1/3
f 154/1/3 152/1/3 136/1/3
f 155/1/3 152/1/3 154/1/3
f 156/1/3 134/1/3 132/1/3
f 156/1/3 154/1/3 134/1/3
f 157/1/3 154/1/3 156/1/3
f 158/1/3 132/1/3 130/1/3
f 158/1/3 156/1/3 132/1/3
f 159/1/3 156/1/3 158/1/3
f 160/1/3 158/1/3 130/1/3
f 161/1/3 158/1/3 160/1/3
f 162/1/3 160/1/3 130/1/3
f 163/1/3 160/1/3 162/1/3
f 164/1/3 162/1/3 130/1/3
f 165/1/3 162/1/3 164/1/3
f 166/1/3 164/1/3 130/1/3
f 168/1/3 167/1/3 166/1/3
f 170/1/3 169/1/3 168/1/3
f 172/1/3 171/1/3 170/1/3
f 174/1/3 173/1/3 172/1/3
f 176/1/3 175/1/3 174/1/3
f 178/1/3 176/1/3 174/1/3
f 178/1/3 177/1/3 176/1/3
f 179/1/3 177/1/3 178/1/3
f 180/1/3 174/1/3 172/1/3
f 180/1/3 178/1/3 174/1/3
f 181/1/3 178/1/3 180/1/3
f 182/1/3 172/1/3 170/1/3
f 182/1/3 180/1/3 172/1/3
f 183/1/3 180/1/3 182/1/3
f 184/1/3 170/1/3 168/1/3
f 184/1/3 182/1/3 170/1/3
f 185/1/3 182/1/3 184/1/3
f 186/1/3 168/1/3 166/1/3
f 186/1/3 184/1/3 168/1/3
f 187/1/3 184/1/3 186/1/3
f 188/1/3 166/1/3 130/1/3
f 188/1/3 186/1/3 166/1/3
f 189/1/3 186/1/3 188/1/3
f 190/2/3 130/2/3 129/2/3
f 191/1/3 188/1/3 130/1/3
f 191/2/3 130/2/3 190/2/3
f 192/1/3 188/1/3 191/1/3
f 194/1/4 195/1/4 196/1/4
f 196/1/4 197/1/4 198/1/4
f 198/1/4 199/1/4 200/1/4
f 200/1/4 201/1/4 202/1/4
f 202/1/4 203/1/4 204/1/4
f 204/1/4 205/1/4 206/1/4
f 206/1/4 207/1/4 208/1/4
f 206/1/4 208/1/4 210/1/4
f 208/1/4 209/1/4 210/1/4
f 210/1/4 209/1/4 211/1/4
f 204/1/4 206/1/4 212/1/4
f 206/1/4 210/1/4 212/1/4
f 212/1/4 210/1/4 213/1/4
f 202/1/4 204/1/4 214/1/4
f 204/1/4 212/1/4 214/1/4
f 214/1/4 212/1/4 215/1/4
f 200/1/4 202/1/4 216/1/4
f 202/1/4 214/1/4 216/1/4
f 216/1/4 214/1/4 217/1/4
f 198/1/4 200/1/4 218/1/4
f 200/1/4 216/1/4 218/1/4
f 218/1/4 216/1/4 219/1/4
f 196/1/4 198/1/4 220/1/4
f 198/1/4 218/1/4 220/1/4
f 220/1/4 218/1/4 221/1/4
f 194/1/4 196/1/4 222/1/4
f 196/1/4 220/1/4 222/1/4
f 222/1/4 220/1/4 223/1/4
f 194/1/4 222/1/4 224/1/4
f 224/1/4 222/1/4 225/1/4
f 194/1/4 224/1/4 226/1/4
f 226/1/4 224/1/4 227/1/4
f 194/1/4 226/1/4 228/1/4
f 228/1/4 226/1/4 229/1/4
f 194/1/4 228/1/4 230/1/4
f 230/1/4 231/1/4 232/1/4
f 232/1/4 233/1/4 234/1/4
f 234/1/4 235/1/4 236/1/4
f 236/1/4 237/1/4 238/1/4
f 238/1/4 239/1/4 240/1/4
f 238/1/4 240/1/4 242/1/4
f 240/1/4 241/1/4 242/1/4
f 242/1/4 241/1/4 243/1/4
f 236/1/4 238/1/4 244/1/4
f 238/1/4 242/1/4 244/1/4
f 244/1/4 242/1/4 245/1/4
f 234/1/4 236/1/4 246/1/4
f 236/1/4 244/1/4 246/1/4
f 246/1/4 244/1/4 247/1/4
f 232/1/4 234/1/4 248/1/4
f 234/1/4 246/1/4 248/1/4
f 248/1/4 246/1/4 249/1/4
f 230/1/4 232/1/4 250/1/4
f 232/1/4 248/1/4 250/1/4
f 250/1/4 248/1/4 251/1/4
f 194/1/4 230/1/4 252/1/4
f 230/1/4 250/1/4 252/1/4
f 252/1/4 250/1/4 253/1/4
f 193/2/4 194/2/4 254/2/4
f 194/1/4 252/1/4 255/1/4
f 254/2/4 194/2/4 255/2/4
f 255/1/4 252/1/4 256/1/4
f 259/2/5 258/2/5 257/2/5
f 260/2/5 258/2/5 259/2/5
f 261/1/6 262/1/6 265/1/6
f 265/1/6 262/1/6 266/1/6
f 263/1/6 264/1/6 267/1/6
f 267/1/6 264/1/6 268/1/6
f 269/1/6 270/1/6 275/1/6
f 275/1/6 270/1/6 276/1/6
f 271/1/6 272/1/6 277/1/6
f 277/1/6 272/1/6 278/1/6
f 273/1/6 274/1/6 279/1/6
f 279/1/6 274/1/6 280/1/6
f 281/1/6 282/1/6 287/1/6
f 287/1/6 282/1/6 288/1/6
f 283/1/6 284/1/6 289/1/6
f 289/1/6 284/1/6 290/1/6
f 285/1/6 286/1/6 291/1/6
f 291/1/6 286/1/6 292/1/6
f 293/1/6 294/1/6 301/1/6
f 301/1/6 294/1/6 302/1/6
f 295/1/6 296/1/6 303/1/6
f 303/1/6 296/1/6 304/1/6
f 297/1/6 298/1/6 305/1/6
f 305/1/6 298/1/6 306/1/6
f 299/1/6 300/1/6 307/1/6
f 307/1/6 300/1/6 308/1/6
f 309/1/6 310/1/6 317/1/6
f 317/1/6 310/1/6 318/1/6
f 311/1/6 312/1/6 319/1/6
f 319/1/6 312/1/6 320/1/6
f 313/1/6 314/1/6 321/1/6
f 321/1/6 314/1/6 322/1/6
f 315/1/6 316/1/6 323/1/6
f 323/1/6 316/1/6 324/1/6
f 325/1/6 326/1/6 333/1/6
f 333/1/6 326/1/6 334/1/6
f 327/1/6 328/1/6 335/1/6
f 335/1/6 328/1/6 336/1/6
f 329/1/6 330/1/6 337/1/6
f 337/1/6 330/1/6 338/1/6
f 331/1/6 332/1/6 339/1/6
f 339/1/6 332/1/6 340/1/6
f 341/1/6 342/1/6 343/1/6
f 343/1/6 342/1/6 344/1/6
f 345/1/6 346/1/6 349/1/6
f 349/1/6 346/1/6 350/1/6
f 347/1/6 348/1/6 351/1/6
f 351/1/6 348/1/6 352/1/6
f 353/1/6 354/1/6 357/1/6
f 357/1/6 354/1/6 358/1/6
f 355/1/6 356/1/6 359/1/6
f 359/1/6 356/1/6 360/1/6
f 361/1/6 362/1/6 365/1/6
f 365/1/6 362/1/6 366/1/6
f 363/1/6 364/1/6 367/1/6
f 367/1/6 364/1/6 368/1/6
f 369/1/6 370/1/6 373/1/6
f 373/1/6 370/1/6 374/1/6
f 371/1/6 372/1/6 375/1/6
f 375/1/6 372/1/6 376/1/6
f 377/1/6 378/1/6 379/1/6
f 379/1/6 378/1/6 380/1/6
