# 3ds Max Wavefront OBJ Exporter v0.97b - (c)2007 guruware
# File Created: 06.12.2017 20:04:32

mtllib MC_MissileAmmo.mtl

#
# object MC_MissileAmmo
#

v  -3.0000 -1.0000 0.5000
v  -3.0000 -5.0000 -0.5000
v  -3.0000 -5.0000 0.5000
v  -3.0000 -1.0000 -0.5000
v  -1.0000 0.0000 0.5000
v  -1.0000 -1.0000 -0.5000
v  -1.0000 -1.0000 0.5000
v  -1.0000 0.0000 -0.5000
v  -1.0000 1.0000 0.5000
v  -1.0000 1.0000 -0.5000
v  -1.0000 2.0000 0.5000
v  -1.0000 2.0000 -0.5000
v  -1.0000 3.0000 0.5000
v  -1.0000 3.0000 -0.5000
v  -1.0000 4.0000 0.5000
v  -1.0000 4.0000 -0.5000
v  -1.0000 5.0000 0.5000
v  -1.0000 5.0000 -0.5000
v  1.0000 -3.0000 0.5000
v  1.0000 -5.0000 -0.5000
v  1.0000 -5.0000 0.5000
v  1.0000 -3.0000 -0.5000
v  -1.0000 -5.0000 0.5000
v  -1.0000 -5.0000 -0.5000
v  -1.0000 -3.0000 0.5000
v  -1.0000 -3.0000 -0.5000
v  1.0000 -1.0000 0.5000
v  1.0000 -1.0000 -0.5000
v  1.0000 0.0000 0.5000
v  1.0000 0.0000 -0.5000
v  1.0000 1.0000 0.5000
v  1.0000 1.0000 -0.5000
v  1.0000 2.0000 0.5000
v  1.0000 2.0000 -0.5000
v  1.0000 3.0000 0.5000
v  1.0000 3.0000 -0.5000
v  1.0000 4.0000 0.5000
v  1.0000 4.0000 -0.5000
v  1.0000 5.0000 0.5000
v  1.0000 5.0000 -0.5000
v  3.0000 -5.0000 0.5000
v  3.0000 -5.0000 -0.5000
v  3.0000 -1.0000 0.5000
v  3.0000 -1.0000 -0.5000
v  -2.0000 -5.0000 0.5000
v  -2.0000 -2.0000 0.5000
v  2.0000 -5.0000 0.5000
v  2.0000 -2.0000 0.5000
v  -2.0000 -5.0000 -0.5000
v  -2.0000 -2.0000 -0.5000
v  2.0000 -5.0000 -0.5000
v  2.0000 -2.0000 -0.5000
# 52 vertices

vn -1.0000 0.0000 0.0000
vn 1.0000 0.0000 0.0000
vn 0.0000 0.0000 1.0000
vn 0.0000 0.0000 -1.0000
vn 0.0000 -1.0000 0.0000
vn 0.0000 1.0000 0.0000
# 6 vertex normals

vt 0.0020 0.5000 0.0000
vt 0.9668 0.5000 0.0000
vt 0.9590 0.5000 0.0000
# 3 texture coords

o MC_MissileAmmo
g MC_MissileAmmo
usemtl palette
s 1
f 1/1/1 2/1/1 3/1/1 
f 4/1/1 2/1/1 1/1/1 
f 5/1/1 6/1/1 7/1/1 
f 8/1/1 6/1/1 5/1/1 
f 9/2/1 8/2/1 5/2/1 
f 10/2/1 8/2/1 9/2/1 
f 11/3/1 10/3/1 9/3/1 
f 12/3/1 10/3/1 11/3/1 
f 13/2/1 12/2/1 11/2/1 
f 14/2/1 12/2/1 13/2/1 
f 15/3/1 14/3/1 13/3/1 
f 16/3/1 14/3/1 15/3/1 
f 17/2/1 16/2/1 15/2/1 
f 18/2/1 16/2/1 17/2/1 
f 19/2/1 20/2/1 21/2/1 
f 22/2/1 20/2/1 19/2/1 
f 23/2/2 24/2/2 25/2/2 
f 25/2/2 24/2/2 26/2/2 
f 27/1/2 28/1/2 29/1/2 
f 29/1/2 28/1/2 30/1/2 
f 29/2/2 30/2/2 31/2/2 
f 31/2/2 30/2/2 32/2/2 
f 31/3/2 32/3/2 33/3/2 
f 33/3/2 32/3/2 34/3/2 
f 33/2/2 34/2/2 35/2/2 
f 35/2/2 34/2/2 36/2/2 
f 35/3/2 36/3/2 37/3/2 
f 37/3/2 36/3/2 38/3/2 
f 37/2/2 38/2/2 39/2/2 
f 39/2/2 38/2/2 40/2/2 
f 41/1/2 42/1/2 43/1/2 
f 43/1/2 42/1/2 44/1/2 
f 45/1/3 1/1/3 3/1/3 
f 46/1/3 1/1/3 45/1/3 
f 23/2/3 46/2/3 45/2/3 
f 25/2/3 46/2/3 23/2/3 
f 7/1/3 1/1/3 46/1/3 
f 19/2/3 46/2/3 25/2/3 
f 27/1/3 7/1/3 46/1/3 
f 27/1/3 5/1/3 7/1/3 
f 29/2/3 9/2/3 5/2/3 
f 29/1/3 5/1/3 27/1/3 
f 31/3/3 11/3/3 9/3/3 
f 31/2/3 9/2/3 29/2/3 
f 33/2/3 13/2/3 11/2/3 
f 33/3/3 11/3/3 31/3/3 
f 35/3/3 15/3/3 13/3/3 
f 35/2/3 13/2/3 33/2/3 
f 37/2/3 17/2/3 15/2/3 
f 37/3/3 15/3/3 35/3/3 
f 39/2/3 17/2/3 37/2/3 
f 47/2/3 19/2/3 21/2/3 
f 48/1/3 27/1/3 46/1/3 
f 48/2/3 19/2/3 47/2/3 
f 48/2/3 46/2/3 19/2/3 
f 41/1/3 48/1/3 47/1/3 
f 43/1/3 27/1/3 48/1/3 
f 43/1/3 48/1/3 41/1/3 
f 2/1/4 4/1/4 49/1/4 
f 49/1/4 4/1/4 50/1/4 
f 49/2/4 50/2/4 24/2/4 
f 24/2/4 50/2/4 26/2/4 
f 50/1/4 4/1/4 6/1/4 
f 26/2/4 50/2/4 22/2/4 
f 50/1/4 6/1/4 28/1/4 
f 6/1/4 8/1/4 28/1/4 
f 8/2/4 10/2/4 30/2/4 
f 28/1/4 8/1/4 30/1/4 
f 10/3/4 12/3/4 32/3/4 
f 30/2/4 10/2/4 32/2/4 
f 12/2/4 14/2/4 34/2/4 
f 32/3/4 12/3/4 34/3/4 
f 14/3/4 16/3/4 36/3/4 
f 34/2/4 14/2/4 36/2/4 
f 16/2/4 18/2/4 38/2/4 
f 36/3/4 16/3/4 38/3/4 
f 38/2/4 18/2/4 40/2/4 
f 20/2/4 22/2/4 51/2/4 
f 50/1/4 28/1/4 52/1/4 
f 51/2/4 22/2/4 52/2/4 
f 22/2/4 50/2/4 52/2/4 
f 51/1/4 52/1/4 42/1/4 
f 52/1/4 28/1/4 44/1/4 
f 42/1/4 52/1/4 44/1/4 
f 2/1/5 45/1/5 3/1/5 
f 49/2/5 23/2/5 45/2/5 
f 49/1/5 45/1/5 2/1/5 
f 24/2/5 23/2/5 49/2/5 
f 20/2/5 47/2/5 21/2/5 
f 51/1/5 41/1/5 47/1/5 
f 51/2/5 47/2/5 20/2/5 
f 42/1/5 41/1/5 51/1/5 
f 26/2/5 19/2/5 25/2/5 
f 22/2/5 19/2/5 26/2/5 
f 1/1/6 7/1/6 4/1/6 
f 4/1/6 7/1/6 6/1/6 
f 27/1/6 43/1/6 28/1/6 
f 28/1/6 43/1/6 44/1/6 
f 17/2/6 39/2/6 18/2/6 
f 18/2/6 39/2/6 40/2/6 
# 0 polygons - 100 triangles

