# 3ds Max Wavefront OBJ Exporter v0.97b - (c)2007 guruware
# File Created: 07.12.2017 18:30:05

mtllib MC_WarHead.mtl

#
# object MC_WarHead
#

v  -2.0000 -1.0000 0.5000
v  -2.0000 -2.0000 -0.5000
v  -2.0000 -2.0000 0.5000
v  -2.0000 -1.0000 -0.5000
v  -2.0000 1.0000 0.5000
v  -2.0000 1.0000 -0.5000
v  -2.0000 2.0000 0.5000
v  -2.0000 2.0000 -0.5000
v  -1.0000 -2.0000 0.5000
v  -1.0000 -2.0000 -0.5000
v  -1.0000 -1.0000 0.5000
v  -1.0000 -1.0000 -0.5000
v  -1.0000 1.0000 0.5000
v  -1.0000 1.0000 -0.5000
v  -1.0000 2.0000 0.5000
v  -1.0000 2.0000 -0.5000
v  2.0000 -1.0000 0.5000
v  2.0000 -1.0000 -0.5000
v  2.0000 1.0000 0.5000
v  2.0000 1.0000 -0.5000
v  -1.0000 0.0000 0.5000
v  0.0000 -1.0000 0.5000
v  0.0000 0.0000 0.5000
v  0.0000 1.0000 0.5000
v  1.0000 -1.0000 0.5000
v  1.0000 0.0000 0.5000
v  1.0000 1.0000 0.5000
v  -1.0000 0.0000 -0.5000
v  0.0000 -1.0000 -0.5000
v  0.0000 0.0000 -0.5000
v  0.0000 1.0000 -0.5000
v  1.0000 -1.0000 -0.5000
v  1.0000 0.0000 -0.5000
v  1.0000 1.0000 -0.5000
# 34 vertices

vn -1.0000 0.0000 0.0000
vn 1.0000 0.0000 0.0000
vn 0.0000 0.0000 1.0000
vn 0.0000 0.0000 -1.0000
vn 0.0000 -1.0000 0.0000
vn 0.0000 1.0000 0.0000
# 6 vertex normals

vt 0.9590 0.5000 0.0000
vt 0.0020 0.5000 0.0000
vt 0.9707 0.5000 0.0000
vt 0.9668 0.5000 0.0000
vt 0.9629 0.5000 0.0000
# 5 texture coords

o MC_WarHead
g MC_WarHead
usemtl palette
s 1
f 1/1/1 2/1/1 3/1/1 
f 4/1/1 2/1/1 1/1/1 
f 5/2/1 4/2/1 1/2/1 
f 6/2/1 4/2/1 5/2/1 
f 7/1/1 6/1/1 5/1/1 
f 8/1/1 6/1/1 7/1/1 
f 9/1/2 10/1/2 11/1/2 
f 11/1/2 10/1/2 12/1/2 
f 13/1/2 14/1/2 15/1/2 
f 15/1/2 14/1/2 16/1/2 
f 17/3/2 18/3/2 19/3/2 
f 19/3/2 18/3/2 20/3/2 
f 9/1/3 1/1/3 3/1/3 
f 11/2/3 5/2/3 1/2/3 
f 11/1/3 1/1/3 9/1/3 
f 21/2/3 5/2/3 11/2/3 
f 13/1/3 7/1/3 5/1/3 
f 13/2/3 5/2/3 21/2/3 
f 15/1/3 7/1/3 13/1/3 
f 22/4/3 21/4/3 11/4/3 
f 23/5/3 13/5/3 21/5/3 
f 23/4/3 21/4/3 22/4/3 
f 24/5/3 13/5/3 23/5/3 
f 25/5/3 23/5/3 22/5/3 
f 26/4/3 24/4/3 23/4/3 
f 26/5/3 23/5/3 25/5/3 
f 27/4/3 24/4/3 26/4/3 
f 17/3/3 26/3/3 25/3/3 
f 17/3/3 27/3/3 26/3/3 
f 19/3/3 27/3/3 17/3/3 
f 2/1/4 4/1/4 10/1/4 
f 4/2/4 6/2/4 12/2/4 
f 10/1/4 4/1/4 12/1/4 
f 12/2/4 6/2/4 28/2/4 
f 6/1/4 8/1/4 14/1/4 
f 28/2/4 6/2/4 14/2/4 
f 14/1/4 8/1/4 16/1/4 
f 12/4/4 28/4/4 29/4/4 
f 28/5/4 14/5/4 30/5/4 
f 29/4/4 28/4/4 30/4/4 
f 30/5/4 14/5/4 31/5/4 
f 29/5/4 30/5/4 32/5/4 
f 30/4/4 31/4/4 33/4/4 
f 32/5/4 30/5/4 33/5/4 
f 33/4/4 31/4/4 34/4/4 
f 32/3/4 33/3/4 18/3/4 
f 33/3/4 34/3/4 18/3/4 
f 18/3/4 34/3/4 20/3/4 
f 2/1/5 9/1/5 3/1/5 
f 10/1/5 9/1/5 2/1/5 
f 12/4/5 22/4/5 11/4/5 
f 29/5/5 25/5/5 22/5/5 
f 29/4/5 22/4/5 12/4/5 
f 32/3/5 17/3/5 25/3/5 
f 32/5/5 25/5/5 29/5/5 
f 18/3/5 17/3/5 32/3/5 
f 13/5/6 24/5/6 14/5/6 
f 24/4/6 27/4/6 31/4/6 
f 14/5/6 24/5/6 31/5/6 
f 27/3/6 19/3/6 34/3/6 
f 31/4/6 27/4/6 34/4/6 
f 34/3/6 19/3/6 20/3/6 
f 7/1/6 15/1/6 8/1/6 
f 8/1/6 15/1/6 16/1/6 
# 0 polygons - 64 triangles

