# MagicaVoxel @ Ephtracy

# material
mtllib 3.mtl
usemtl palette

# normals
vn -1 0 0
vn 1 0 0
vn 0 0 1
vn 0 0 -1
vn 0 -1 0
vn 0 1 0

# texcoords
vt 0.958984 0.5
vt 0.962891 0.5

# verts
v -3.5 1 0.5
v -3.5 1 -0.5
v -3.5 2 0.5
v -3.5 2 -0.5
v -3.5 11 0.5
v -3.5 11 -0.5
v -3.5 12 0.5
v -3.5 12 -0.5
v -0.5 6 0.5
v -0.5 6 -0.5
v -0.5 7 0.5
v -0.5 7 -0.5
v 2.5 5 0.5
v 2.5 5 -0.5
v 2.5 6 0.5
v 2.5 6 -0.5
v 2.5 7 0.5
v 2.5 7 -0.5
v 2.5 8 0.5
v 2.5 8 -0.5
v 3.5 2 0.5
v 3.5 2 -0.5
v 3.5 5 0.5
v 3.5 5 -0.5
v 3.5 8 0.5
v 3.5 8 -0.5
v 3.5 11 0.5
v 3.5 11 -0.5
v 2.5 6 0.5
v 2.5 6 -0.5
v 2.5 7 0.5
v 2.5 7 -0.5
v 3.5 1 0.5
v 3.5 1 -0.5
v 3.5 2 0.5
v 3.5 2 -0.5
v 3.5 5 0.5
v 3.5 5 -0.5
v 3.5 6 0.5
v 3.5 6 -0.5
v 3.5 7 0.5
v 3.5 7 -0.5
v 3.5 8 0.5
v 3.5 8 -0.5
v 3.5 11 0.5
v 3.5 11 -0.5
v 3.5 12 0.5
v 3.5 12 -0.5
v 4.5 2 0.5
v 4.5 2 -0.5
v 4.5 5 0.5
v 4.5 5 -0.5
v 4.5 8 0.5
v 4.5 8 -0.5
v 4.5 11 0.5
v 4.5 11 -0.5
v -3.5 1 0.5
v -3.5 2 0.5
v -3.5 11 0.5
v -3.5 12 0.5
v -2.5 1 0.5
v -2.5 2 0.5
v -2.5 11 0.5
v -2.5 12 0.5
v -0.5 6 0.5
v -0.5 7 0.5
v 0.5 6 0.5
v 0.5 7 0.5
v 2.5 5 0.5
v 2.5 6 0.5
v 2.5 7 0.5
v 2.5 8 0.5
v 3.5 1 0.5
v 3.5 2 0.5
v 3.5 5 0.5
v 3.5 6 0.5
v 3.5 7 0.5
v 3.5 8 0.5
v 3.5 11 0.5
v 3.5 12 0.5
v 4.5 2 0.5
v 4.5 5 0.5
v 4.5 8 0.5
v 4.5 11 0.5
v -3.5 1 -0.5
v -3.5 2 -0.5
v -3.5 11 -0.5
v -3.5 12 -0.5
v -2.5 1 -0.5
v -2.5 2 -0.5
v -2.5 11 -0.5
v -2.5 12 -0.5
v -0.5 6 -0.5
v -0.5 7 -0.5
v 0.5 6 -0.5
v 0.5 7 -0.5
v 2.5 5 -0.5
v 2.5 6 -0.5
v 2.5 7 -0.5
v 2.5 8 -0.5
v 3.5 1 -0.5
v 3.5 2 -0.5
v 3.5 5 -0.5
v 3.5 6 -0.5
v 3.5 7 -0.5
v 3.5 8 -0.5
v 3.5 11 -0.5
v 3.5 12 -0.5
v 4.5 2 -0.5
v 4.5 5 -0.5
v 4.5 8 -0.5
v 4.5 11 -0.5
v -3.5 1 0.5
v -2.5 1 0.5
v 3.5 1 0.5
v -3.5 1 -0.5
v -2.5 1 -0.5
v 3.5 1 -0.5
v 3.5 2 0.5
v 4.5 2 0.5
v 3.5 2 -0.5
v 4.5 2 -0.5
v 2.5 5 0.5
v 3.5 5 0.5
v 2.5 5 -0.5
v 3.5 5 -0.5
v -0.5 6 0.5
v 0.5 6 0.5
v 2.5 6 0.5
v -0.5 6 -0.5
v 0.5 6 -0.5
v 2.5 6 -0.5
v 2.5 7 0.5
v 3.5 7 0.5
v 2.5 7 -0.5
v 3.5 7 -0.5
v 3.5 8 0.5
v 4.5 8 0.5
v 3.5 8 -0.5
v 4.5 8 -0.5
v -3.5 11 0.5
v -2.5 11 0.5
v 3.5 11 0.5
v -3.5 11 -0.5
v -2.5 11 -0.5
v 3.5 11 -0.5
v -3.5 2 0.5
v -2.5 2 0.5
v 3.5 2 0.5
v -3.5 2 -0.5
v -2.5 2 -0.5
v 3.5 2 -0.5
v 3.5 5 0.5
v 4.5 5 0.5
v 3.5 5 -0.5
v 4.5 5 -0.5
v 2.5 6 0.5
v 3.5 6 0.5
v 2.5 6 -0.5
v 3.5 6 -0.5
v -0.5 7 0.5
v 0.5 7 0.5
v 2.5 7 0.5
v -0.5 7 -0.5
v 0.5 7 -0.5
v 2.5 7 -0.5
v 2.5 8 0.5
v 3.5 8 0.5
v 2.5 8 -0.5
v 3.5 8 -0.5
v 3.5 11 0.5
v 4.5 11 0.5
v 3.5 11 -0.5
v 4.5 11 -0.5
v -3.5 12 0.5
v -2.5 12 0.5
v 3.5 12 0.5
v -3.5 12 -0.5
v -2.5 12 -0.5
v 3.5 12 -0.5

# faces
f 3/2/1 2/2/1 1/2/1
f 4/2/1 2/2/1 3/2/1
f 7/2/1 6/2/1 5/2/1
f 8/2/1 6/2/1 7/2/1
f 11/2/1 10/2/1 9/2/1
f 12/2/1 10/2/1 11/2/1
f 15/1/1 14/1/1 13/1/1
f 16/1/1 14/1/1 15/1/1
f 19/1/1 18/1/1 17/1/1
f 20/1/1 18/1/1 19/1/1
f 23/1/1 22/1/1 21/1/1
f 24/1/1 22/1/1 23/1/1
f 27/1/1 26/1/1 25/1/1
f 28/1/1 26/1/1 27/1/1
f 29/1/2 30/1/2 31/1/2
f 31/1/2 30/1/2 32/1/2
f 33/1/2 34/1/2 35/1/2
f 35/1/2 34/1/2 36/1/2
f 37/1/2 38/1/2 39/1/2
f 39/1/2 38/1/2 40/1/2
f 41/1/2 42/1/2 43/1/2
f 43/1/2 42/1/2 44/1/2
f 45/1/2 46/1/2 47/1/2
f 47/1/2 46/1/2 48/1/2
f 49/1/2 50/1/2 51/1/2
f 51/1/2 50/1/2 52/1/2
f 53/1/2 54/1/2 55/1/2
f 55/1/2 54/1/2 56/1/2
f 61/2/3 58/2/3 57/2/3
f 62/2/3 58/2/3 61/2/3
f 63/2/3 60/2/3 59/2/3
f 64/2/3 60/2/3 63/2/3
f 67/2/3 66/2/3 65/2/3
f 68/2/3 66/2/3 67/2/3
f 70/1/3 68/1/3 67/1/3
f 71/1/3 68/1/3 70/1/3
f 73/1/3 62/1/3 61/1/3
f 74/1/3 62/1/3 73/1/3
f 75/1/3 70/1/3 69/1/3
f 76/1/3 70/1/3 75/1/3
f 77/1/3 72/1/3 71/1/3
f 78/1/3 72/1/3 77/1/3
f 79/1/3 64/1/3 63/1/3
f 80/1/3 64/1/3 79/1/3
f 81/1/3 75/1/3 74/1/3
f 82/1/3 75/1/3 81/1/3
f 83/1/3 79/1/3 78/1/3
f 84/1/3 79/1/3 83/1/3
f 85/2/4 86/2/4 89/2/4
f 89/2/4 86/2/4 90/2/4
f 87/2/4 88/2/4 91/2/4
f 91/2/4 88/2/4 92/2/4
f 93/2/4 94/2/4 95/2/4
f 95/2/4 94/2/4 96/2/4
f 95/1/4 96/1/4 98/1/4
f 98/1/4 96/1/4 99/1/4
f 89/1/4 90/1/4 101/1/4
f 101/1/4 90/1/4 102/1/4
f 97/1/4 98/1/4 103/1/4
f 103/1/4 98/1/4 104/1/4
f 99/1/4 100/1/4 105/1/4
f 105/1/4 100/1/4 106/1/4
f 91/1/4 92/1/4 107/1/4
f 107/1/4 92/1/4 108/1/4
f 102/1/4 103/1/4 109/1/4
f 109/1/4 103/1/4 110/1/4
f 106/1/4 107/1/4 111/1/4
f 111/1/4 107/1/4 112/1/4
f 116/2/5 114/2/5 113/2/5
f 117/1/5 115/1/5 114/1/5
f 117/2/5 114/2/5 116/2/5
f 118/1/5 115/1/5 117/1/5
f 121/1/5 120/1/5 119/1/5
f 122/1/5 120/1/5 121/1/5
f 125/1/5 124/1/5 123/1/5
f 126/1/5 124/1/5 125/1/5
f 130/2/5 128/2/5 127/2/5
f 131/1/5 129/1/5 128/1/5
f 131/2/5 128/2/5 130/2/5
f 132/1/5 129/1/5 131/1/5
f 135/1/5 134/1/5 133/1/5
f 136/1/5 134/1/5 135/1/5
f 139/1/5 138/1/5 137/1/5
f 140/1/5 138/1/5 139/1/5
f 144/2/5 142/2/5 141/2/5
f 145/1/5 143/1/5 142/1/5
f 145/2/5 142/2/5 144/2/5
f 146/1/5 143/1/5 145/1/5
f 147/2/6 148/2/6 150/2/6
f 148/1/6 149/1/6 151/1/6
f 150/2/6 148/2/6 151/2/6
f 151/1/6 149/1/6 152/1/6
f 153/1/6 154/1/6 155/1/6
f 155/1/6 154/1/6 156/1/6
f 157/1/6 158/1/6 159/1/6
f 159/1/6 158/1/6 160/1/6
f 161/2/6 162/2/6 164/2/6
f 162/1/6 163/1/6 165/1/6
f 164/2/6 162/2/6 165/2/6
f 165/1/6 163/1/6 166/1/6
f 167/1/6 168/1/6 169/1/6
f 169/1/6 168/1/6 170/1/6
f 171/1/6 172/1/6 173/1/6
f 173/1/6 172/1/6 174/1/6
f 175/2/6 176/2/6 178/2/6
f 176/1/6 177/1/6 179/1/6
f 178/2/6 176/2/6 179/2/6
f 179/1/6 177/1/6 180/1/6
