# MagicaVoxel @ Ephtracy

# material
mtllib A.mtl
usemtl palette

# normals
vn -1 0 0
vn 1 0 0
vn 0 0 1
vn 0 0 -1
vn 0 -1 0
vn 0 1 0

# texcoords
vt 0.958984 0.5
vt 0.962891 0.5

# verts
v -4.5 1 0.5
v -4.5 1 -0.5
v -4.5 2 0.5
v -4.5 2 -0.5
v -4.5 10 0.5
v -4.5 10 -0.5
v -3.5 10 0.5
v -3.5 10 -0.5
v -3.5 11 0.5
v -3.5 11 -0.5
v -2.5 11 0.5
v -2.5 11 -0.5
v -2.5 12 0.5
v -2.5 12 -0.5
v 1.5 10 0.5
v 1.5 10 -0.5
v 1.5 11 0.5
v 1.5 11 -0.5
v 3.5 1 0.5
v 3.5 1 -0.5
v 3.5 2 0.5
v 3.5 2 -0.5
v 3.5 6 0.5
v 3.5 6 -0.5
v 3.5 7 0.5
v 3.5 7 -0.5
v 3.5 10 0.5
v 3.5 10 -0.5
v -3.5 1 0.5
v -3.5 1 -0.5
v -3.5 2 0.5
v -3.5 2 -0.5
v -3.5 6 0.5
v -3.5 6 -0.5
v -3.5 7 0.5
v -3.5 7 -0.5
v -3.5 10 0.5
v -3.5 10 -0.5
v -1.5 10 0.5
v -1.5 10 -0.5
v -1.5 11 0.5
v -1.5 11 -0.5
v 2.5 11 0.5
v 2.5 11 -0.5
v 2.5 12 0.5
v 2.5 12 -0.5
v 3.5 10 0.5
v 3.5 10 -0.5
v 3.5 11 0.5
v 3.5 11 -0.5
v 4.5 1 0.5
v 4.5 1 -0.5
v 4.5 2 0.5
v 4.5 2 -0.5
v 4.5 10 0.5
v 4.5 10 -0.5
v -4.5 1 0.5
v -4.5 2 0.5
v -4.5 10 0.5
v -3.5 1 0.5
v -3.5 2 0.5
v -3.5 6 0.5
v -3.5 7 0.5
v -3.5 10 0.5
v -3.5 11 0.5
v -2.5 11 0.5
v -2.5 12 0.5
v -1.5 10 0.5
v -1.5 11 0.5
v 1.5 10 0.5
v 1.5 11 0.5
v 2.5 11 0.5
v 2.5 12 0.5
v 3.5 1 0.5
v 3.5 2 0.5
v 3.5 6 0.5
v 3.5 7 0.5
v 3.5 10 0.5
v 3.5 11 0.5
v 4.5 1 0.5
v 4.5 2 0.5
v 4.5 10 0.5
v -4.5 1 -0.5
v -4.5 2 -0.5
v -4.5 10 -0.5
v -3.5 1 -0.5
v -3.5 2 -0.5
v -3.5 6 -0.5
v -3.5 7 -0.5
v -3.5 10 -0.5
v -3.5 11 -0.5
v -2.5 11 -0.5
v -2.5 12 -0.5
v -1.5 10 -0.5
v -1.5 11 -0.5
v 1.5 10 -0.5
v 1.5 11 -0.5
v 2.5 11 -0.5
v 2.5 12 -0.5
v 3.5 1 -0.5
v 3.5 2 -0.5
v 3.5 6 -0.5
v 3.5 7 -0.5
v 3.5 10 -0.5
v 3.5 11 -0.5
v 4.5 1 -0.5
v 4.5 2 -0.5
v 4.5 10 -0.5
v -4.5 1 0.5
v -3.5 1 0.5
v 3.5 1 0.5
v 4.5 1 0.5
v -4.5 1 -0.5
v -3.5 1 -0.5
v 3.5 1 -0.5
v 4.5 1 -0.5
v -3.5 6 0.5
v 3.5 6 0.5
v -3.5 6 -0.5
v 3.5 6 -0.5
v -3.5 10 0.5
v -1.5 10 0.5
v 1.5 10 0.5
v 3.5 10 0.5
v -3.5 10 -0.5
v -1.5 10 -0.5
v 1.5 10 -0.5
v 3.5 10 -0.5
v -1.5 11 0.5
v 1.5 11 0.5
v -1.5 11 -0.5
v 1.5 11 -0.5
v -3.5 7 0.5
v 3.5 7 0.5
v -3.5 7 -0.5
v 3.5 7 -0.5
v -4.5 10 0.5
v -3.5 10 0.5
v 3.5 10 0.5
v 4.5 10 0.5
v -4.5 10 -0.5
v -3.5 10 -0.5
v 3.5 10 -0.5
v 4.5 10 -0.5
v -3.5 11 0.5
v -2.5 11 0.5
v 2.5 11 0.5
v 3.5 11 0.5
v -3.5 11 -0.5
v -2.5 11 -0.5
v 2.5 11 -0.5
v 3.5 11 -0.5
v -2.5 12 0.5
v 2.5 12 0.5
v -2.5 12 -0.5
v 2.5 12 -0.5

# faces
f 3/2/1 2/2/1 1/2/1
f 4/2/1 2/2/1 3/2/1
f 5/1/1 4/1/1 3/1/1
f 6/1/1 4/1/1 5/1/1
f 9/1/1 8/1/1 7/1/1
f 10/1/1 8/1/1 9/1/1
f 13/1/1 12/1/1 11/1/1
f 14/1/1 12/1/1 13/1/1
f 17/1/1 16/1/1 15/1/1
f 18/1/1 16/1/1 17/1/1
f 21/2/1 20/2/1 19/2/1
f 22/2/1 20/2/1 21/2/1
f 23/1/1 22/1/1 21/1/1
f 24/1/1 22/1/1 23/1/1
f 27/1/1 26/1/1 25/1/1
f 28/1/1 26/1/1 27/1/1
f 29/2/2 30/2/2 31/2/2
f 31/2/2 30/2/2 32/2/2
f 31/1/2 32/1/2 33/1/2
f 33/1/2 32/1/2 34/1/2
f 35/1/2 36/1/2 37/1/2
f 37/1/2 36/1/2 38/1/2
f 39/1/2 40/1/2 41/1/2
f 41/1/2 40/1/2 42/1/2
f 43/1/2 44/1/2 45/1/2
f 45/1/2 44/1/2 46/1/2
f 47/1/2 48/1/2 49/1/2
f 49/1/2 48/1/2 50/1/2
f 51/2/2 52/2/2 53/2/2
f 53/2/2 52/2/2 54/2/2
f 53/1/2 54/1/2 55/1/2
f 55/1/2 54/1/2 56/1/2
f 60/2/3 58/2/3 57/2/3
f 61/1/3 59/1/3 58/1/3
f 61/2/3 58/2/3 60/2/3
f 62/1/3 59/1/3 61/1/3
f 63/1/3 59/1/3 62/1/3
f 64/1/3 59/1/3 63/1/3
f 66/1/3 65/1/3 64/1/3
f 68/1/3 66/1/3 64/1/3
f 68/1/3 67/1/3 66/1/3
f 69/1/3 67/1/3 68/1/3
f 71/1/3 67/1/3 69/1/3
f 72/1/3 67/1/3 71/1/3
f 72/1/3 71/1/3 70/1/3
f 73/1/3 67/1/3 72/1/3
f 76/1/3 63/1/3 62/1/3
f 77/1/3 63/1/3 76/1/3
f 78/1/3 72/1/3 70/1/3
f 79/1/3 72/1/3 78/1/3
f 80/2/3 75/2/3 74/2/3
f 81/1/3 77/1/3 76/1/3
f 81/2/3 75/2/3 80/2/3
f 81/1/3 76/1/3 75/1/3
f 81/1/3 78/1/3 77/1/3
f 82/1/3 78/1/3 81/1/3
f 83/2/4 84/2/4 86/2/4
f 84/1/4 85/1/4 87/1/4
f 86/2/4 84/2/4 87/2/4
f 87/1/4 85/1/4 88/1/4
f 88/1/4 85/1/4 89/1/4
f 89/1/4 85/1/4 90/1/4
f 90/1/4 91/1/4 92/1/4
f 90/1/4 92/1/4 94/1/4
f 92/1/4 93/1/4 94/1/4
f 94/1/4 93/1/4 95/1/4
f 95/1/4 93/1/4 97/1/4
f 97/1/4 93/1/4 98/1/4
f 96/1/4 97/1/4 98/1/4
f 98/1/4 93/1/4 99/1/4
f 88/1/4 89/1/4 102/1/4
f 102/1/4 89/1/4 103/1/4
f 96/1/4 98/1/4 104/1/4
f 104/1/4 98/1/4 105/1/4
f 100/2/4 101/2/4 106/2/4
f 102/1/4 103/1/4 107/1/4
f 106/2/4 101/2/4 107/2/4
f 101/1/4 102/1/4 107/1/4
f 103/1/4 104/1/4 107/1/4
f 107/1/4 104/1/4 108/1/4
f 113/2/5 110/2/5 109/2/5
f 114/2/5 110/2/5 113/2/5
f 115/2/5 112/2/5 111/2/5
f 116/2/5 112/2/5 115/2/5
f 119/1/5 118/1/5 117/1/5
f 120/1/5 118/1/5 119/1/5
f 125/1/5 122/1/5 121/1/5
f 126/1/5 122/1/5 125/1/5
f 127/1/5 124/1/5 123/1/5
f 128/1/5 124/1/5 127/1/5
f 131/1/5 130/1/5 129/1/5
f 132/1/5 130/1/5 131/1/5
f 133/1/6 134/1/6 135/1/6
f 135/1/6 134/1/6 136/1/6
f 137/1/6 138/1/6 141/1/6
f 141/1/6 138/1/6 142/1/6
f 139/1/6 140/1/6 143/1/6
f 143/1/6 140/1/6 144/1/6
f 145/1/6 146/1/6 149/1/6
f 149/1/6 146/1/6 150/1/6
f 147/1/6 148/1/6 151/1/6
f 151/1/6 148/1/6 152/1/6
f 153/1/6 154/1/6 155/1/6
f 155/1/6 154/1/6 156/1/6
