# MagicaVoxel @ Ephtracy

# material
mtllib C.mtl
usemtl palette

# normals
vn -1 0 0
vn 1 0 0
vn 0 0 1
vn 0 0 -1
vn 0 -1 0
vn 0 1 0

# texcoords
vt 0.958984 0.5
vt 0.962891 0.5

# verts
v -4.5 3 0.5
v -4.5 3 -0.5
v -4.5 10 0.5
v -4.5 10 -0.5
v -3.5 2 0.5
v -3.5 2 -0.5
v -3.5 3 0.5
v -3.5 3 -0.5
v -3.5 10 0.5
v -3.5 10 -0.5
v -3.5 11 0.5
v -3.5 11 -0.5
v -2.5 1 0.5
v -2.5 1 -0.5
v -2.5 2 0.5
v -2.5 2 -0.5
v -2.5 11 0.5
v -2.5 11 -0.5
v -2.5 12 0.5
v -2.5 12 -0.5
v -3.5 3 0.5
v -3.5 3 -0.5
v -3.5 10 0.5
v -3.5 10 -0.5
v -2.5 2 0.5
v -2.5 2 -0.5
v -2.5 3 0.5
v -2.5 3 -0.5
v -2.5 10 0.5
v -2.5 10 -0.5
v -2.5 11 0.5
v -2.5 11 -0.5
v 4.5 1 0.5
v 4.5 1 -0.5
v 4.5 2 0.5
v 4.5 2 -0.5
v 4.5 11 0.5
v 4.5 11 -0.5
v 4.5 12 0.5
v 4.5 12 -0.5
v -4.5 3 0.5
v -4.5 10 0.5
v -3.5 2 0.5
v -3.5 3 0.5
v -3.5 10 0.5
v -3.5 11 0.5
v -2.5 1 0.5
v -2.5 2 0.5
v -2.5 3 0.5
v -2.5 10 0.5
v -2.5 11 0.5
v -2.5 12 0.5
v 3.5 1 0.5
v 3.5 2 0.5
v 3.5 11 0.5
v 3.5 12 0.5
v 4.5 1 0.5
v 4.5 2 0.5
v 4.5 11 0.5
v 4.5 12 0.5
v -4.5 3 -0.5
v -4.5 10 -0.5
v -3.5 2 -0.5
v -3.5 3 -0.5
v -3.5 10 -0.5
v -3.5 11 -0.5
v -2.5 1 -0.5
v -2.5 2 -0.5
v -2.5 3 -0.5
v -2.5 10 -0.5
v -2.5 11 -0.5
v -2.5 12 -0.5
v 3.5 1 -0.5
v 3.5 2 -0.5
v 3.5 11 -0.5
v 3.5 12 -0.5
v 4.5 1 -0.5
v 4.5 2 -0.5
v 4.5 11 -0.5
v 4.5 12 -0.5
v -2.5 1 0.5
v 3.5 1 0.5
v 4.5 1 0.5
v -2.5 1 -0.5
v 3.5 1 -0.5
v 4.5 1 -0.5
v -3.5 2 0.5
v -2.5 2 0.5
v -3.5 2 -0.5
v -2.5 2 -0.5
v -4.5 3 0.5
v -3.5 3 0.5
v -4.5 3 -0.5
v -3.5 3 -0.5
v -3.5 10 0.5
v -2.5 10 0.5
v -3.5 10 -0.5
v -2.5 10 -0.5
v -2.5 11 0.5
v 3.5 11 0.5
v 4.5 11 0.5
v -2.5 11 -0.5
v 3.5 11 -0.5
v 4.5 11 -0.5
v -2.5 2 0.5
v 3.5 2 0.5
v 4.5 2 0.5
v -2.5 2 -0.5
v 3.5 2 -0.5
v 4.5 2 -0.5
v -3.5 3 0.5
v -2.5 3 0.5
v -3.5 3 -0.5
v -2.5 3 -0.5
v -4.5 10 0.5
v -3.5 10 0.5
v -4.5 10 -0.5
v -3.5 10 -0.5
v -3.5 11 0.5
v -2.5 11 0.5
v -3.5 11 -0.5
v -2.5 11 -0.5
v -2.5 12 0.5
v 3.5 12 0.5
v 4.5 12 0.5
v -2.5 12 -0.5
v 3.5 12 -0.5
v 4.5 12 -0.5

# faces
f 3/1/1 2/1/1 1/1/1
f 4/1/1 2/1/1 3/1/1
f 7/1/1 6/1/1 5/1/1
f 8/1/1 6/1/1 7/1/1
f 11/1/1 10/1/1 9/1/1
f 12/1/1 10/1/1 11/1/1
f 15/1/1 14/1/1 13/1/1
f 16/1/1 14/1/1 15/1/1
f 19/1/1 18/1/1 17/1/1
f 20/1/1 18/1/1 19/1/1
f 21/1/2 22/1/2 23/1/2
f 23/1/2 22/1/2 24/1/2
f 25/1/2 26/1/2 27/1/2
f 27/1/2 26/1/2 28/1/2
f 29/1/2 30/1/2 31/1/2
f 31/1/2 30/1/2 32/1/2
f 33/2/2 34/2/2 35/2/2
f 35/2/2 34/2/2 36/2/2
f 37/2/2 38/2/2 39/2/2
f 39/2/2 38/2/2 40/2/2
f 44/1/3 42/1/3 41/1/3
f 45/1/3 42/1/3 44/1/3
f 48/1/3 44/1/3 43/1/3
f 49/1/3 44/1/3 48/1/3
f 50/1/3 46/1/3 45/1/3
f 51/1/3 46/1/3 50/1/3
f 53/1/3 48/1/3 47/1/3
f 54/1/3 48/1/3 53/1/3
f 55/1/3 52/1/3 51/1/3
f 56/1/3 52/1/3 55/1/3
f 57/2/3 54/2/3 53/2/3
f 58/2/3 54/2/3 57/2/3
f 59/2/3 56/2/3 55/2/3
f 60/2/3 56/2/3 59/2/3
f 61/1/4 62/1/4 64/1/4
f 64/1/4 62/1/4 65/1/4
f 63/1/4 64/1/4 68/1/4
f 68/1/4 64/1/4 69/1/4
f 65/1/4 66/1/4 70/1/4
f 70/1/4 66/1/4 71/1/4
f 67/1/4 68/1/4 73/1/4
f 73/1/4 68/1/4 74/1/4
f 71/1/4 72/1/4 75/1/4
f 75/1/4 72/1/4 76/1/4
f 73/2/4 74/2/4 77/2/4
f 77/2/4 74/2/4 78/2/4
f 75/2/4 76/2/4 79/2/4
f 79/2/4 76/2/4 80/2/4
f 84/1/5 82/1/5 81/1/5
f 85/2/5 83/2/5 82/2/5
f 85/1/5 82/1/5 84/1/5
f 86/2/5 83/2/5 85/2/5
f 89/1/5 88/1/5 87/1/5
f 90/1/5 88/1/5 89/1/5
f 93/1/5 92/1/5 91/1/5
f 94/1/5 92/1/5 93/1/5
f 97/1/5 96/1/5 95/1/5
f 98/1/5 96/1/5 97/1/5
f 102/1/5 100/1/5 99/1/5
f 103/2/5 101/2/5 100/2/5
f 103/1/5 100/1/5 102/1/5
f 104/2/5 101/2/5 103/2/5
f 105/1/6 106/1/6 108/1/6
f 106/2/6 107/2/6 109/2/6
f 108/1/6 106/1/6 109/1/6
f 109/2/6 107/2/6 110/2/6
f 111/1/6 112/1/6 113/1/6
f 113/1/6 112/1/6 114/1/6
f 115/1/6 116/1/6 117/1/6
f 117/1/6 116/1/6 118/1/6
f 119/1/6 120/1/6 121/1/6
f 121/1/6 120/1/6 122/1/6
f 123/1/6 124/1/6 126/1/6
f 124/2/6 125/2/6 127/2/6
f 126/1/6 124/1/6 127/1/6
f 127/2/6 125/2/6 128/2/6
