# 3ds Max Wavefront OBJ Exporter v0.97b - (c)2007 guruware
# File Created: 07.12.2017 16:01:25

mtllib Cube.mtl

#
# object Cube
#

v  -1.0000 0.0000 1.0000
v  -1.0000 -1.0000 0.0000
v  -1.0000 -1.0000 1.0000
v  -1.0000 0.0000 0.0000
v  -1.0000 -1.0000 -1.0000
v  -1.0000 0.0000 -1.0000
v  -1.0000 1.0000 1.0000
v  -1.0000 1.0000 0.0000
v  -1.0000 1.0000 -1.0000
v  1.0000 -1.0000 1.0000
v  1.0000 -1.0000 0.0000
v  1.0000 0.0000 1.0000
v  1.0000 -1.0000 -1.0000
v  1.0000 0.0000 0.0000
v  1.0000 0.0000 -1.0000
v  1.0000 1.0000 1.0000
v  1.0000 1.0000 0.0000
v  1.0000 1.0000 -1.0000
v  0.0000 -1.0000 1.0000
v  0.0000 0.0000 1.0000
v  0.0000 1.0000 1.0000
v  0.0000 -1.0000 -1.0000
v  0.0000 0.0000 -1.0000
v  0.0000 1.0000 -1.0000
v  0.0000 -1.0000 0.0000
v  0.0000 1.0000 0.0000
# 26 vertices

vn -1.0000 0.0000 0.0000
vn 1.0000 0.0000 0.0000
vn 0.0000 0.0000 1.0000
vn 0.0000 0.0000 -1.0000
vn 0.0000 -1.0000 0.0000
vn 0.0000 1.0000 0.0000
# 6 vertex normals

vt 0.9590 0.5000 0.0000
vt 0.0020 0.5000 0.0000
# 2 texture coords

o Cube
g Cube
usemtl palette
s 1
f 1/1/1 2/1/1 3/1/1 
f 4/2/1 5/2/1 2/2/1 
f 4/1/1 2/1/1 1/1/1 
f 6/2/1 5/2/1 4/2/1 
f 7/2/1 4/2/1 1/2/1 
f 8/1/1 6/1/1 4/1/1 
f 8/2/1 4/2/1 7/2/1 
f 9/1/1 6/1/1 8/1/1 
f 10/2/2 11/2/2 12/2/2 
f 11/1/2 13/1/2 14/1/2 
f 12/2/2 11/2/2 14/2/2 
f 14/1/2 13/1/2 15/1/2 
f 12/1/2 14/1/2 16/1/2 
f 14/2/2 15/2/2 17/2/2 
f 16/1/2 14/1/2 17/1/2 
f 17/2/2 15/2/2 18/2/2 
f 19/1/3 1/1/3 3/1/3 
f 20/2/3 7/2/3 1/2/3 
f 20/1/3 1/1/3 19/1/3 
f 21/2/3 7/2/3 20/2/3 
f 10/2/3 20/2/3 19/2/3 
f 12/1/3 21/1/3 20/1/3 
f 12/2/3 20/2/3 10/2/3 
f 16/1/3 21/1/3 12/1/3 
f 5/2/4 6/2/4 22/2/4 
f 6/1/4 9/1/4 23/1/4 
f 22/2/4 6/2/4 23/2/4 
f 23/1/4 9/1/4 24/1/4 
f 22/1/4 23/1/4 13/1/4 
f 23/2/4 24/2/4 15/2/4 
f 13/1/4 23/1/4 15/1/4 
f 15/2/4 24/2/4 18/2/4 
f 2/1/5 19/1/5 3/1/5 
f 25/2/5 10/2/5 19/2/5 
f 25/1/5 19/1/5 2/1/5 
f 11/2/5 10/2/5 25/2/5 
f 5/2/5 25/2/5 2/2/5 
f 22/1/5 11/1/5 25/1/5 
f 22/2/5 25/2/5 5/2/5 
f 13/1/5 11/1/5 22/1/5 
f 7/2/6 21/2/6 8/2/6 
f 21/1/6 16/1/6 26/1/6 
f 8/2/6 21/2/6 26/2/6 
f 26/1/6 16/1/6 17/1/6 
f 8/1/6 26/1/6 9/1/6 
f 26/2/6 17/2/6 24/2/6 
f 9/1/6 26/1/6 24/1/6 
f 24/2/6 17/2/6 18/2/6 
# 0 polygons - 48 triangles

