# MagicaVoxel @ Ephtracy

# material
mtllib G.mtl
usemtl palette

# normals
vn -1 0 0
vn 1 0 0
vn 0 0 1
vn 0 0 -1
vn 0 -1 0
vn 0 1 0

# texcoords
vt 0.958984 0.5
vt 0.962891 0.5

# verts
v -5.5 3 0.5
v -5.5 3 -0.5
v -5.5 10 0.5
v -5.5 10 -0.5
v -4.5 2 0.5
v -4.5 2 -0.5
v -4.5 3 0.5
v -4.5 3 -0.5
v -4.5 10 0.5
v -4.5 10 -0.5
v -4.5 11 0.5
v -4.5 11 -0.5
v -3.5 1 0.5
v -3.5 1 -0.5
v -3.5 2 0.5
v -3.5 2 -0.5
v -3.5 11 0.5
v -3.5 11 -0.5
v -3.5 12 0.5
v -3.5 12 -0.5
v 0.5 4 0.5
v 0.5 4 -0.5
v 0.5 5 0.5
v 0.5 5 -0.5
v 2.5 2 0.5
v 2.5 2 -0.5
v 2.5 4 0.5
v 2.5 4 -0.5
v -4.5 3 0.5
v -4.5 3 -0.5
v -4.5 10 0.5
v -4.5 10 -0.5
v -3.5 2 0.5
v -3.5 2 -0.5
v -3.5 3 0.5
v -3.5 3 -0.5
v -3.5 10 0.5
v -3.5 10 -0.5
v -3.5 11 0.5
v -3.5 11 -0.5
v 2.5 1 0.5
v 2.5 1 -0.5
v 2.5 2 0.5
v 2.5 2 -0.5
v 3.5 2 0.5
v 3.5 2 -0.5
v 3.5 5 0.5
v 3.5 5 -0.5
v 3.5 11 0.5
v 3.5 11 -0.5
v 3.5 12 0.5
v 3.5 12 -0.5
v -5.5 3 0.5
v -5.5 10 0.5
v -4.5 2 0.5
v -4.5 3 0.5
v -4.5 10 0.5
v -4.5 11 0.5
v -3.5 1 0.5
v -3.5 2 0.5
v -3.5 3 0.5
v -3.5 10 0.5
v -3.5 11 0.5
v -3.5 12 0.5
v 0.5 4 0.5
v 0.5 5 0.5
v 2.5 1 0.5
v 2.5 2 0.5
v 2.5 4 0.5
v 2.5 11 0.5
v 2.5 12 0.5
v 3.5 2 0.5
v 3.5 5 0.5
v 3.5 11 0.5
v 3.5 12 0.5
v -5.5 3 -0.5
v -5.5 10 -0.5
v -4.5 2 -0.5
v -4.5 3 -0.5
v -4.5 10 -0.5
v -4.5 11 -0.5
v -3.5 1 -0.5
v -3.5 2 -0.5
v -3.5 3 -0.5
v -3.5 10 -0.5
v -3.5 11 -0.5
v -3.5 12 -0.5
v 0.5 4 -0.5
v 0.5 5 -0.5
v 2.5 1 -0.5
v 2.5 2 -0.5
v 2.5 4 -0.5
v 2.5 11 -0.5
v 2.5 12 -0.5
v 3.5 2 -0.5
v 3.5 5 -0.5
v 3.5 11 -0.5
v 3.5 12 -0.5
v -3.5 1 0.5
v 2.5 1 0.5
v -3.5 1 -0.5
v 2.5 1 -0.5
v -4.5 2 0.5
v -3.5 2 0.5
v 2.5 2 0.5
v 3.5 2 0.5
v -4.5 2 -0.5
v -3.5 2 -0.5
v 2.5 2 -0.5
v 3.5 2 -0.5
v -5.5 3 0.5
v -4.5 3 0.5
v -5.5 3 -0.5
v -4.5 3 -0.5
v 0.5 4 0.5
v 2.5 4 0.5
v 0.5 4 -0.5
v 2.5 4 -0.5
v -4.5 10 0.5
v -3.5 10 0.5
v -4.5 10 -0.5
v -3.5 10 -0.5
v -3.5 11 0.5
v 2.5 11 0.5
v 3.5 11 0.5
v -3.5 11 -0.5
v 2.5 11 -0.5
v 3.5 11 -0.5
v -3.5 2 0.5
v 2.5 2 0.5
v -3.5 2 -0.5
v 2.5 2 -0.5
v -4.5 3 0.5
v -3.5 3 0.5
v -4.5 3 -0.5
v -3.5 3 -0.5
v 0.5 5 0.5
v 3.5 5 0.5
v 0.5 5 -0.5
v 3.5 5 -0.5
v -5.5 10 0.5
v -4.5 10 0.5
v -5.5 10 -0.5
v -4.5 10 -0.5
v -4.5 11 0.5
v -3.5 11 0.5
v -4.5 11 -0.5
v -3.5 11 -0.5
v -3.5 12 0.5
v 2.5 12 0.5
v 3.5 12 0.5
v -3.5 12 -0.5
v 2.5 12 -0.5
v 3.5 12 -0.5

# faces
f 3/1/1 2/1/1 1/1/1
f 4/1/1 2/1/1 3/1/1
f 7/1/1 6/1/1 5/1/1
f 8/1/1 6/1/1 7/1/1
f 11/1/1 10/1/1 9/1/1
f 12/1/1 10/1/1 11/1/1
f 15/1/1 14/1/1 13/1/1
f 16/1/1 14/1/1 15/1/1
f 19/1/1 18/1/1 17/1/1
f 20/1/1 18/1/1 19/1/1
f 23/1/1 22/1/1 21/1/1
f 24/1/1 22/1/1 23/1/1
f 27/1/1 26/1/1 25/1/1
f 28/1/1 26/1/1 27/1/1
f 29/1/2 30/1/2 31/1/2
f 31/1/2 30/1/2 32/1/2
f 33/1/2 34/1/2 35/1/2
f 35/1/2 34/1/2 36/1/2
f 37/1/2 38/1/2 39/1/2
f 39/1/2 38/1/2 40/1/2
f 41/1/2 42/1/2 43/1/2
f 43/1/2 42/1/2 44/1/2
f 45/1/2 46/1/2 47/1/2
f 47/1/2 46/1/2 48/1/2
f 49/2/2 50/2/2 51/2/2
f 51/2/2 50/2/2 52/2/2
f 56/1/3 54/1/3 53/1/3
f 57/1/3 54/1/3 56/1/3
f 60/1/3 56/1/3 55/1/3
f 61/1/3 56/1/3 60/1/3
f 62/1/3 58/1/3 57/1/3
f 63/1/3 58/1/3 62/1/3
f 67/1/3 60/1/3 59/1/3
f 68/1/3 60/1/3 67/1/3
f 69/1/3 66/1/3 65/1/3
f 70/1/3 64/1/3 63/1/3
f 71/1/3 64/1/3 70/1/3
f 72/1/3 69/1/3 68/1/3
f 73/1/3 66/1/3 69/1/3
f 73/1/3 69/1/3 72/1/3
f 74/2/3 71/2/3 70/2/3
f 75/2/3 71/2/3 74/2/3
f 76/1/4 77/1/4 79/1/4
f 79/1/4 77/1/4 80/1/4
f 78/1/4 79/1/4 83/1/4
f 83/1/4 79/1/4 84/1/4
f 80/1/4 81/1/4 85/1/4
f 85/1/4 81/1/4 86/1/4
f 82/1/4 83/1/4 90/1/4
f 90/1/4 83/1/4 91/1/4
f 88/1/4 89/1/4 92/1/4
f 86/1/4 87/1/4 93/1/4
f 93/1/4 87/1/4 94/1/4
f 91/1/4 92/1/4 95/1/4
f 92/1/4 89/1/4 96/1/4
f 95/1/4 92/1/4 96/1/4
f 93/2/4 94/2/4 97/2/4
f 97/2/4 94/2/4 98/2/4
f 101/1/5 100/1/5 99/1/5
f 102/1/5 100/1/5 101/1/5
f 107/1/5 104/1/5 103/1/5
f 108/1/5 104/1/5 107/1/5
f 109/1/5 106/1/5 105/1/5
f 110/1/5 106/1/5 109/1/5
f 113/1/5 112/1/5 111/1/5
f 114/1/5 112/1/5 113/1/5
f 117/1/5 116/1/5 115/1/5
f 118/1/5 116/1/5 117/1/5
f 121/1/5 120/1/5 119/1/5
f 122/1/5 120/1/5 121/1/5
f 126/1/5 124/1/5 123/1/5
f 127/2/5 125/2/5 124/2/5
f 127/1/5 124/1/5 126/1/5
f 128/2/5 125/2/5 127/2/5
f 129/1/6 130/1/6 131/1/6
f 131/1/6 130/1/6 132/1/6
f 133/1/6 134/1/6 135/1/6
f 135/1/6 134/1/6 136/1/6
f 137/1/6 138/1/6 139/1/6
f 139/1/6 138/1/6 140/1/6
f 141/1/6 142/1/6 143/1/6
f 143/1/6 142/1/6 144/1/6
f 145/1/6 146/1/6 147/1/6
f 147/1/6 146/1/6 148/1/6
f 149/1/6 150/1/6 152/1/6
f 150/2/6 151/2/6 153/2/6
f 152/1/6 150/1/6 153/1/6
f 153/2/6 151/2/6 154/2/6
