# MagicaVoxel @ Ephtracy

# material
mtllib P.mtl
usemtl palette

# normals
vn -1 0 0
vn 1 0 0
vn 0 0 1
vn 0 0 -1
vn 0 -1 0
vn 0 1 0

# texcoords
vt 0.958984 0.5
vt 0.962891 0.5

# verts
v -4.5 1 0.5
v -4.5 1 -0.5
v -4.5 2 0.5
v -4.5 2 -0.5
v -4.5 12 0.5
v -4.5 12 -0.5
v 1.5 8 0.5
v 1.5 8 -0.5
v 1.5 11 0.5
v 1.5 11 -0.5
v -3.5 1 0.5
v -3.5 1 -0.5
v -3.5 2 0.5
v -3.5 2 -0.5
v -3.5 7 0.5
v -3.5 7 -0.5
v -3.5 8 0.5
v -3.5 8 -0.5
v -3.5 11 0.5
v -3.5 11 -0.5
v 1.5 7 0.5
v 1.5 7 -0.5
v 1.5 8 0.5
v 1.5 8 -0.5
v 1.5 11 0.5
v 1.5 11 -0.5
v 1.5 12 0.5
v 1.5 12 -0.5
v 2.5 8 0.5
v 2.5 8 -0.5
v 2.5 11 0.5
v 2.5 11 -0.5
v -4.5 1 0.5
v -4.5 2 0.5
v -4.5 12 0.5
v -3.5 1 0.5
v -3.5 2 0.5
v -3.5 7 0.5
v -3.5 8 0.5
v -3.5 11 0.5
v 1.5 7 0.5
v 1.5 8 0.5
v 1.5 11 0.5
v 1.5 12 0.5
v 2.5 8 0.5
v 2.5 11 0.5
v -4.5 1 -0.5
v -4.5 2 -0.5
v -4.5 12 -0.5
v -3.5 1 -0.5
v -3.5 2 -0.5
v -3.5 7 -0.5
v -3.5 8 -0.5
v -3.5 11 -0.5
v 1.5 7 -0.5
v 1.5 8 -0.5
v 1.5 11 -0.5
v 1.5 12 -0.5
v 2.5 8 -0.5
v 2.5 11 -0.5
v -4.5 1 0.5
v -3.5 1 0.5
v -4.5 1 -0.5
v -3.5 1 -0.5
v -3.5 7 0.5
v 1.5 7 0.5
v -3.5 7 -0.5
v 1.5 7 -0.5
v 1.5 8 0.5
v 2.5 8 0.5
v 1.5 8 -0.5
v 2.5 8 -0.5
v -3.5 11 0.5
v 1.5 11 0.5
v -3.5 11 -0.5
v 1.5 11 -0.5
v -3.5 8 0.5
v 1.5 8 0.5
v -3.5 8 -0.5
v 1.5 8 -0.5
v 1.5 11 0.5
v 2.5 11 0.5
v 1.5 11 -0.5
v 2.5 11 -0.5
v -4.5 12 0.5
v 1.5 12 0.5
v -4.5 12 -0.5
v 1.5 12 -0.5

# faces
f 3/2/1 2/2/1 1/2/1
f 4/2/1 2/2/1 3/2/1
f 5/1/1 4/1/1 3/1/1
f 6/1/1 4/1/1 5/1/1
f 9/1/1 8/1/1 7/1/1
f 10/1/1 8/1/1 9/1/1
f 11/2/2 12/2/2 13/2/2
f 13/2/2 12/2/2 14/2/2
f 13/1/2 14/1/2 15/1/2
f 15/1/2 14/1/2 16/1/2
f 17/1/2 18/1/2 19/1/2
f 19/1/2 18/1/2 20/1/2
f 21/1/2 22/1/2 23/1/2
f 23/1/2 22/1/2 24/1/2
f 25/1/2 26/1/2 27/1/2
f 27/1/2 26/1/2 28/1/2
f 29/1/2 30/1/2 31/1/2
f 31/1/2 30/1/2 32/1/2
f 36/2/3 34/2/3 33/2/3
f 37/1/3 35/1/3 34/1/3
f 37/2/3 34/2/3 36/2/3
f 38/1/3 35/1/3 37/1/3
f 39/1/3 35/1/3 38/1/3
f 40/1/3 35/1/3 39/1/3
f 41/1/3 39/1/3 38/1/3
f 42/1/3 39/1/3 41/1/3
f 43/1/3 35/1/3 40/1/3
f 44/1/3 35/1/3 43/1/3
f 45/1/3 43/1/3 42/1/3
f 46/1/3 43/1/3 45/1/3
f 47/2/4 48/2/4 50/2/4
f 48/1/4 49/1/4 51/1/4
f 50/2/4 48/2/4 51/2/4
f 51/1/4 49/1/4 52/1/4
f 52/1/4 49/1/4 53/1/4
f 53/1/4 49/1/4 54/1/4
f 52/1/4 53/1/4 55/1/4
f 55/1/4 53/1/4 56/1/4
f 54/1/4 49/1/4 57/1/4
f 57/1/4 49/1/4 58/1/4
f 56/1/4 57/1/4 59/1/4
f 59/1/4 57/1/4 60/1/4
f 63/2/5 62/2/5 61/2/5
f 64/2/5 62/2/5 63/2/5
f 67/1/5 66/1/5 65/1/5
f 68/1/5 66/1/5 67/1/5
f 71/1/5 70/1/5 69/1/5
f 72/1/5 70/1/5 71/1/5
f 75/1/5 74/1/5 73/1/5
f 76/1/5 74/1/5 75/1/5
f 77/1/6 78/1/6 79/1/6
f 79/1/6 78/1/6 80/1/6
f 81/1/6 82/1/6 83/1/6
f 83/1/6 82/1/6 84/1/6
f 85/1/6 86/1/6 87/1/6
f 87/1/6 86/1/6 88/1/6
