# MagicaVoxel @ Ephtracy

# material
mtllib U.mtl
usemtl palette

# normals
vn -1 0 0
vn 1 0 0
vn 0 0 1
vn 0 0 -1
vn 0 -1 0
vn 0 1 0

# texcoords
vt 0.958984 0.5
vt 0.962891 0.5

# verts
v -4.5 4 0.5
v -4.5 4 -0.5
v -4.5 11 0.5
v -4.5 11 -0.5
v -4.5 12 0.5
v -4.5 12 -0.5
v -3.5 2 0.5
v -3.5 2 -0.5
v -3.5 4 0.5
v -3.5 4 -0.5
v -2.5 1 0.5
v -2.5 1 -0.5
v -2.5 2 0.5
v -2.5 2 -0.5
v 2.5 2 0.5
v 2.5 2 -0.5
v 2.5 4 0.5
v 2.5 4 -0.5
v 3.5 4 0.5
v 3.5 4 -0.5
v 3.5 11 0.5
v 3.5 11 -0.5
v 3.5 12 0.5
v 3.5 12 -0.5
v -3.5 4 0.5
v -3.5 4 -0.5
v -3.5 11 0.5
v -3.5 11 -0.5
v -3.5 12 0.5
v -3.5 12 -0.5
v -2.5 2 0.5
v -2.5 2 -0.5
v -2.5 4 0.5
v -2.5 4 -0.5
v 2.5 1 0.5
v 2.5 1 -0.5
v 2.5 2 0.5
v 2.5 2 -0.5
v 3.5 2 0.5
v 3.5 2 -0.5
v 3.5 4 0.5
v 3.5 4 -0.5
v 4.5 4 0.5
v 4.5 4 -0.5
v 4.5 11 0.5
v 4.5 11 -0.5
v 4.5 12 0.5
v 4.5 12 -0.5
v -4.5 4 0.5
v -4.5 11 0.5
v -4.5 12 0.5
v -3.5 2 0.5
v -3.5 4 0.5
v -3.5 11 0.5
v -3.5 12 0.5
v -2.5 1 0.5
v -2.5 2 0.5
v -2.5 4 0.5
v 2.5 1 0.5
v 2.5 2 0.5
v 2.5 4 0.5
v 3.5 2 0.5
v 3.5 4 0.5
v 3.5 11 0.5
v 3.5 12 0.5
v 4.5 4 0.5
v 4.5 11 0.5
v 4.5 12 0.5
v -4.5 4 -0.5
v -4.5 11 -0.5
v -4.5 12 -0.5
v -3.5 2 -0.5
v -3.5 4 -0.5
v -3.5 11 -0.5
v -3.5 12 -0.5
v -2.5 1 -0.5
v -2.5 2 -0.5
v -2.5 4 -0.5
v 2.5 1 -0.5
v 2.5 2 -0.5
v 2.5 4 -0.5
v 3.5 2 -0.5
v 3.5 4 -0.5
v 3.5 11 -0.5
v 3.5 12 -0.5
v 4.5 4 -0.5
v 4.5 11 -0.5
v 4.5 12 -0.5
v -2.5 1 0.5
v 2.5 1 0.5
v -2.5 1 -0.5
v 2.5 1 -0.5
v -3.5 2 0.5
v -2.5 2 0.5
v 2.5 2 0.5
v 3.5 2 0.5
v -3.5 2 -0.5
v -2.5 2 -0.5
v 2.5 2 -0.5
v 3.5 2 -0.5
v -4.5 4 0.5
v -3.5 4 0.5
v 3.5 4 0.5
v 4.5 4 0.5
v -4.5 4 -0.5
v -3.5 4 -0.5
v 3.5 4 -0.5
v 4.5 4 -0.5
v -2.5 2 0.5
v 2.5 2 0.5
v -2.5 2 -0.5
v 2.5 2 -0.5
v -3.5 4 0.5
v -2.5 4 0.5
v 2.5 4 0.5
v 3.5 4 0.5
v -3.5 4 -0.5
v -2.5 4 -0.5
v 2.5 4 -0.5
v 3.5 4 -0.5
v -4.5 12 0.5
v -3.5 12 0.5
v 3.5 12 0.5
v 4.5 12 0.5
v -4.5 12 -0.5
v -3.5 12 -0.5
v 3.5 12 -0.5
v 4.5 12 -0.5

# faces
f 3/1/1 2/1/1 1/1/1
f 4/1/1 2/1/1 3/1/1
f 5/2/1 4/2/1 3/2/1
f 6/2/1 4/2/1 5/2/1
f 9/1/1 8/1/1 7/1/1
f 10/1/1 8/1/1 9/1/1
f 13/1/1 12/1/1 11/1/1
f 14/1/1 12/1/1 13/1/1
f 17/1/1 16/1/1 15/1/1
f 18/1/1 16/1/1 17/1/1
f 21/1/1 20/1/1 19/1/1
f 22/1/1 20/1/1 21/1/1
f 23/2/1 22/2/1 21/2/1
f 24/2/1 22/2/1 23/2/1
f 25/1/2 26/1/2 27/1/2
f 27/1/2 26/1/2 28/1/2
f 27/2/2 28/2/2 29/2/2
f 29/2/2 28/2/2 30/2/2
f 31/1/2 32/1/2 33/1/2
f 33/1/2 32/1/2 34/1/2
f 35/1/2 36/1/2 37/1/2
f 37/1/2 36/1/2 38/1/2
f 39/1/2 40/1/2 41/1/2
f 41/1/2 40/1/2 42/1/2
f 43/1/2 44/1/2 45/1/2
f 45/1/2 44/1/2 46/1/2
f 45/2/2 46/2/2 47/2/2
f 47/2/2 46/2/2 48/2/2
f 53/1/3 50/1/3 49/1/3
f 54/2/3 51/2/3 50/2/3
f 54/1/3 50/1/3 53/1/3
f 55/2/3 51/2/3 54/2/3
f 57/1/3 53/1/3 52/1/3
f 58/1/3 53/1/3 57/1/3
f 59/1/3 57/1/3 56/1/3
f 60/1/3 57/1/3 59/1/3
f 62/1/3 61/1/3 60/1/3
f 63/1/3 61/1/3 62/1/3
f 66/1/3 64/1/3 63/1/3
f 67/2/3 65/2/3 64/2/3
f 67/1/3 64/1/3 66/1/3
f 68/2/3 65/2/3 67/2/3
f 69/1/4 70/1/4 73/1/4
f 70/2/4 71/2/4 74/2/4
f 73/1/4 70/1/4 74/1/4
f 74/2/4 71/2/4 75/2/4
f 72/1/4 73/1/4 77/1/4
f 77/1/4 73/1/4 78/1/4
f 76/1/4 77/1/4 79/1/4
f 79/1/4 77/1/4 80/1/4
f 80/1/4 81/1/4 82/1/4
f 82/1/4 81/1/4 83/1/4
f 83/1/4 84/1/4 86/1/4
f 84/2/4 85/2/4 87/2/4
f 86/1/4 84/1/4 87/1/4
f 87/2/4 85/2/4 88/2/4
f 91/1/5 90/1/5 89/1/5
f 92/1/5 90/1/5 91/1/5
f 97/1/5 94/1/5 93/1/5
f 98/1/5 94/1/5 97/1/5
f 99/1/5 96/1/5 95/1/5
f 100/1/5 96/1/5 99/1/5
f 105/1/5 102/1/5 101/1/5
f 106/1/5 102/1/5 105/1/5
f 107/1/5 104/1/5 103/1/5
f 108/1/5 104/1/5 107/1/5
f 109/1/6 110/1/6 111/1/6
f 111/1/6 110/1/6 112/1/6
f 113/1/6 114/1/6 117/1/6
f 117/1/6 114/1/6 118/1/6
f 115/1/6 116/1/6 119/1/6
f 119/1/6 116/1/6 120/1/6
f 121/2/6 122/2/6 125/2/6
f 125/2/6 122/2/6 126/2/6
f 123/2/6 124/2/6 127/2/6
f 127/2/6 124/2/6 128/2/6
