# MagicaVoxel @ Ephtracy

# material
mtllib W.mtl
usemtl palette

# normals
vn -1 0 0
vn 1 0 0
vn 0 0 1
vn 0 0 -1
vn 0 -1 0
vn 0 1 0

# texcoords
vt 0.958984 0.5
vt 0.962891 0.5

# verts
v -5.5 10 0.5
v -5.5 10 -0.5
v -5.5 11 0.5
v -5.5 11 -0.5
v -5.5 12 0.5
v -5.5 12 -0.5
v -4.5 6 0.5
v -4.5 6 -0.5
v -4.5 10 0.5
v -4.5 10 -0.5
v -3.5 3 0.5
v -3.5 3 -0.5
v -3.5 6 0.5
v -3.5 6 -0.5
v -2.5 1 0.5
v -2.5 1 -0.5
v -2.5 3 0.5
v -2.5 3 -0.5
v -1.5 3 0.5
v -1.5 3 -0.5
v -1.5 5 0.5
v -1.5 5 -0.5
v -0.5 5 0.5
v -0.5 5 -0.5
v -0.5 6 0.5
v -0.5 6 -0.5
v 0.5 3 0.5
v 0.5 3 -0.5
v 0.5 5 0.5
v 0.5 5 -0.5
v 1.5 1 0.5
v 1.5 1 -0.5
v 1.5 3 0.5
v 1.5 3 -0.5
v 2.5 3 0.5
v 2.5 3 -0.5
v 2.5 6 0.5
v 2.5 6 -0.5
v 3.5 6 0.5
v 3.5 6 -0.5
v 3.5 10 0.5
v 3.5 10 -0.5
v 4.5 10 0.5
v 4.5 10 -0.5
v 4.5 11 0.5
v 4.5 11 -0.5
v 4.5 12 0.5
v 4.5 12 -0.5
v -4.5 10 0.5
v -4.5 10 -0.5
v -4.5 11 0.5
v -4.5 11 -0.5
v -4.5 12 0.5
v -4.5 12 -0.5
v -3.5 6 0.5
v -3.5 6 -0.5
v -3.5 10 0.5
v -3.5 10 -0.5
v -2.5 3 0.5
v -2.5 3 -0.5
v -2.5 6 0.5
v -2.5 6 -0.5
v -1.5 1 0.5
v -1.5 1 -0.5
v -1.5 3 0.5
v -1.5 3 -0.5
v -0.5 3 0.5
v -0.5 3 -0.5
v -0.5 5 0.5
v -0.5 5 -0.5
v 0.5 5 0.5
v 0.5 5 -0.5
v 0.5 6 0.5
v 0.5 6 -0.5
v 1.5 3 0.5
v 1.5 3 -0.5
v 1.5 5 0.5
v 1.5 5 -0.5
v 2.5 1 0.5
v 2.5 1 -0.5
v 2.5 3 0.5
v 2.5 3 -0.5
v 3.5 3 0.5
v 3.5 3 -0.5
v 3.5 6 0.5
v 3.5 6 -0.5
v 4.5 6 0.5
v 4.5 6 -0.5
v 4.5 10 0.5
v 4.5 10 -0.5
v 5.5 10 0.5
v 5.5 10 -0.5
v 5.5 11 0.5
v 5.5 11 -0.5
v 5.5 12 0.5
v 5.5 12 -0.5
v -5.5 10 0.5
v -5.5 11 0.5
v -5.5 12 0.5
v -4.5 6 0.5
v -4.5 10 0.5
v -4.5 11 0.5
v -4.5 12 0.5
v -3.5 3 0.5
v -3.5 6 0.5
v -3.5 10 0.5
v -2.5 1 0.5
v -2.5 3 0.5
v -2.5 6 0.5
v -1.5 1 0.5
v -1.5 3 0.5
v -1.5 5 0.5
v -0.5 3 0.5
v -0.5 5 0.5
v -0.5 6 0.5
v 0.5 3 0.5
v 0.5 5 0.5
v 0.5 6 0.5
v 1.5 1 0.5
v 1.5 3 0.5
v 1.5 5 0.5
v 2.5 1 0.5
v 2.5 3 0.5
v 2.5 6 0.5
v 3.5 3 0.5
v 3.5 6 0.5
v 3.5 10 0.5
v 4.5 6 0.5
v 4.5 10 0.5
v 4.5 11 0.5
v 4.5 12 0.5
v 5.5 10 0.5
v 5.5 11 0.5
v 5.5 12 0.5
v -5.5 10 -0.5
v -5.5 11 -0.5
v -5.5 12 -0.5
v -4.5 6 -0.5
v -4.5 10 -0.5
v -4.5 11 -0.5
v -4.5 12 -0.5
v -3.5 3 -0.5
v -3.5 6 -0.5
v -3.5 10 -0.5
v -2.5 1 -0.5
v -2.5 3 -0.5
v -2.5 6 -0.5
v -1.5 1 -0.5
v -1.5 3 -0.5
v -1.5 5 -0.5
v -0.5 3 -0.5
v -0.5 5 -0.5
v -0.5 6 -0.5
v 0.5 3 -0.5
v 0.5 5 -0.5
v 0.5 6 -0.5
v 1.5 1 -0.5
v 1.5 3 -0.5
v 1.5 5 -0.5
v 2.5 1 -0.5
v 2.5 3 -0.5
v 2.5 6 -0.5
v 3.5 3 -0.5
v 3.5 6 -0.5
v 3.5 10 -0.5
v 4.5 6 -0.5
v 4.5 10 -0.5
v 4.5 11 -0.5
v 4.5 12 -0.5
v 5.5 10 -0.5
v 5.5 11 -0.5
v 5.5 12 -0.5
v -2.5 1 0.5
v -1.5 1 0.5
v 1.5 1 0.5
v 2.5 1 0.5
v -2.5 1 -0.5
v -1.5 1 -0.5
v 1.5 1 -0.5
v 2.5 1 -0.5
v -3.5 3 0.5
v -2.5 3 0.5
v -1.5 3 0.5
v -0.5 3 0.5
v 0.5 3 0.5
v 1.5 3 0.5
v 2.5 3 0.5
v 3.5 3 0.5
v -3.5 3 -0.5
v -2.5 3 -0.5
v -1.5 3 -0.5
v -0.5 3 -0.5
v 0.5 3 -0.5
v 1.5 3 -0.5
v 2.5 3 -0.5
v 3.5 3 -0.5
v -0.5 5 0.5
v 0.5 5 0.5
v -0.5 5 -0.5
v 0.5 5 -0.5
v -4.5 6 0.5
v -3.5 6 0.5
v 3.5 6 0.5
v 4.5 6 0.5
v -4.5 6 -0.5
v -3.5 6 -0.5
v 3.5 6 -0.5
v 4.5 6 -0.5
v -5.5 10 0.5
v -4.5 10 0.5
v 4.5 10 0.5
v 5.5 10 0.5
v -5.5 10 -0.5
v -4.5 10 -0.5
v 4.5 10 -0.5
v 5.5 10 -0.5
v -2.5 3 0.5
v -1.5 3 0.5
v 1.5 3 0.5
v 2.5 3 0.5
v -2.5 3 -0.5
v -1.5 3 -0.5
v 1.5 3 -0.5
v 2.5 3 -0.5
v -1.5 5 0.5
v -0.5 5 0.5
v 0.5 5 0.5
v 1.5 5 0.5
v -1.5 5 -0.5
v -0.5 5 -0.5
v 0.5 5 -0.5
v 1.5 5 -0.5
v -3.5 6 0.5
v -2.5 6 0.5
v -0.5 6 0.5
v 0.5 6 0.5
v 2.5 6 0.5
v 3.5 6 0.5
v -3.5 6 -0.5
v -2.5 6 -0.5
v -0.5 6 -0.5
v 0.5 6 -0.5
v 2.5 6 -0.5
v 3.5 6 -0.5
v -4.5 10 0.5
v -3.5 10 0.5
v 3.5 10 0.5
v 4.5 10 0.5
v -4.5 10 -0.5
v -3.5 10 -0.5
v 3.5 10 -0.5
v 4.5 10 -0.5
v -5.5 12 0.5
v -4.5 12 0.5
v 4.5 12 0.5
v 5.5 12 0.5
v -5.5 12 -0.5
v -4.5 12 -0.5
v 4.5 12 -0.5
v 5.5 12 -0.5

# faces
f 3/1/1 2/1/1 1/1/1
f 4/1/1 2/1/1 3/1/1
f 5/2/1 4/2/1 3/2/1
f 6/2/1 4/2/1 5/2/1
f 9/1/1 8/1/1 7/1/1
f 10/1/1 8/1/1 9/1/1
f 13/1/1 12/1/1 11/1/1
f 14/1/1 12/1/1 13/1/1
f 17/1/1 16/1/1 15/1/1
f 18/1/1 16/1/1 17/1/1
f 21/1/1 20/1/1 19/1/1
f 22/1/1 20/1/1 21/1/1
f 25/1/1 24/1/1 23/1/1
f 26/1/1 24/1/1 25/1/1
f 29/1/1 28/1/1 27/1/1
f 30/1/1 28/1/1 29/1/1
f 33/1/1 32/1/1 31/1/1
f 34/1/1 32/1/1 33/1/1
f 37/1/1 36/1/1 35/1/1
f 38/1/1 36/1/1 37/1/1
f 41/1/1 40/1/1 39/1/1
f 42/1/1 40/1/1 41/1/1
f 45/1/1 44/1/1 43/1/1
f 46/1/1 44/1/1 45/1/1
f 47/2/1 46/2/1 45/2/1
f 48/2/1 46/2/1 47/2/1
f 49/1/2 50/1/2 51/1/2
f 51/1/2 50/1/2 52/1/2
f 51/2/2 52/2/2 53/2/2
f 53/2/2 52/2/2 54/2/2
f 55/1/2 56/1/2 57/1/2
f 57/1/2 56/1/2 58/1/2
f 59/1/2 60/1/2 61/1/2
f 61/1/2 60/1/2 62/1/2
f 63/1/2 64/1/2 65/1/2
f 65/1/2 64/1/2 66/1/2
f 67/1/2 68/1/2 69/1/2
f 69/1/2 68/1/2 70/1/2
f 71/1/2 72/1/2 73/1/2
f 73/1/2 72/1/2 74/1/2
f 75/1/2 76/1/2 77/1/2
f 77/1/2 76/1/2 78/1/2
f 79/1/2 80/1/2 81/1/2
f 81/1/2 80/1/2 82/1/2
f 83/1/2 84/1/2 85/1/2
f 85/1/2 84/1/2 86/1/2
f 87/1/2 88/1/2 89/1/2
f 89/1/2 88/1/2 90/1/2
f 91/1/2 92/1/2 93/1/2
f 93/1/2 92/1/2 94/1/2
f 93/2/2 94/2/2 95/2/2
f 95/2/2 94/2/2 96/2/2
f 101/1/3 98/1/3 97/1/3
f 102/2/3 99/2/3 98/2/3
f 102/1/3 98/1/3 101/1/3
f 103/2/3 99/2/3 102/2/3
f 105/1/3 101/1/3 100/1/3
f 106/1/3 101/1/3 105/1/3
f 108/1/3 105/1/3 104/1/3
f 109/1/3 105/1/3 108/1/3
f 110/1/3 108/1/3 107/1/3
f 111/1/3 108/1/3 110/1/3
f 113/1/3 112/1/3 111/1/3
f 114/1/3 112/1/3 113/1/3
f 117/1/3 115/1/3 114/1/3
f 118/1/3 115/1/3 117/1/3
f 120/1/3 117/1/3 116/1/3
f 121/1/3 117/1/3 120/1/3
f 122/1/3 120/1/3 119/1/3
f 123/1/3 120/1/3 122/1/3
f 125/1/3 124/1/3 123/1/3
f 126/1/3 124/1/3 125/1/3
f 128/1/3 127/1/3 126/1/3
f 129/1/3 127/1/3 128/1/3
f 132/1/3 130/1/3 129/1/3
f 133/2/3 131/2/3 130/2/3
f 133/1/3 130/1/3 132/1/3
f 134/2/3 131/2/3 133/2/3
f 135/1/4 136/1/4 139/1/4
f 136/2/4 137/2/4 140/2/4
f 139/1/4 136/1/4 140/1/4
f 140/2/4 137/2/4 141/2/4
f 138/1/4 139/1/4 143/1/4
f 143/1/4 139/1/4 144/1/4
f 142/1/4 143/1/4 146/1/4
f 146/1/4 143/1/4 147/1/4
f 145/1/4 146/1/4 148/1/4
f 148/1/4 146/1/4 149/1/4
f 149/1/4 150/1/4 151/1/4
f 151/1/4 150/1/4 152/1/4
f 152/1/4 153/1/4 155/1/4
f 155/1/4 153/1/4 156/1/4
f 154/1/4 155/1/4 158/1/4
f 158/1/4 155/1/4 159/1/4
f 157/1/4 158/1/4 160/1/4
f 160/1/4 158/1/4 161/1/4
f 161/1/4 162/1/4 163/1/4
f 163/1/4 162/1/4 164/1/4
f 164/1/4 165/1/4 166/1/4
f 166/1/4 165/1/4 167/1/4
f 167/1/4 168/1/4 170/1/4
f 168/2/4 169/2/4 171/2/4
f 170/1/4 168/1/4 171/1/4
f 171/2/4 169/2/4 172/2/4
f 177/1/5 174/1/5 173/1/5
f 178/1/5 174/1/5 177/1/5
f 179/1/5 176/1/5 175/1/5
f 180/1/5 176/1/5 179/1/5
f 189/1/5 182/1/5 181/1/5
f 190/1/5 182/1/5 189/1/5
f 191/1/5 184/1/5 183/1/5
f 192/1/5 184/1/5 191/1/5
f 193/1/5 186/1/5 185/1/5
f 194/1/5 186/1/5 193/1/5
f 195/1/5 188/1/5 187/1/5
f 196/1/5 188/1/5 195/1/5
f 199/1/5 198/1/5 197/1/5
f 200/1/5 198/1/5 199/1/5
f 205/1/5 202/1/5 201/1/5
f 206/1/5 202/1/5 205/1/5
f 207/1/5 204/1/5 203/1/5
f 208/1/5 204/1/5 207/1/5
f 213/1/5 210/1/5 209/1/5
f 214/1/5 210/1/5 213/1/5
f 215/1/5 212/1/5 211/1/5
f 216/1/5 212/1/5 215/1/5
f 217/1/6 218/1/6 221/1/6
f 221/1/6 218/1/6 222/1/6
f 219/1/6 220/1/6 223/1/6
f 223/1/6 220/1/6 224/1/6
f 225/1/6 226/1/6 229/1/6
f 229/1/6 226/1/6 230/1/6
f 227/1/6 228/1/6 231/1/6
f 231/1/6 228/1/6 232/1/6
f 233/1/6 234/1/6 239/1/6
f 239/1/6 234/1/6 240/1/6
f 235/1/6 236/1/6 241/1/6
f 241/1/6 236/1/6 242/1/6
f 237/1/6 238/1/6 243/1/6
f 243/1/6 238/1/6 244/1/6
f 245/1/6 246/1/6 249/1/6
f 249/1/6 246/1/6 250/1/6
f 247/1/6 248/1/6 251/1/6
f 251/1/6 248/1/6 252/1/6
f 253/2/6 254/2/6 257/2/6
f 257/2/6 254/2/6 258/2/6
f 255/2/6 256/2/6 259/2/6
f 259/2/6 256/2/6 260/2/6
